<?xml version="1.0" encoding="UTF-8" standalone="no"?>
<svg
   width="1080"
   zoomAndPan="magnify"
   viewBox="0 0 810 809.999993"
   height="1080"
   preserveAspectRatio="xMidYMid meet"
   version="1.0"
   id="svg17"
   sodipodi:docname="logo_marioti_ciano_inverso.svg"
   inkscape:version="1.2 (dc2aedaf03, 2022-05-15)"
   xmlns:inkscape="http://www.inkscape.org/namespaces/inkscape"
   xmlns:sodipodi="http://sodipodi.sourceforge.net/DTD/sodipodi-0.dtd"
   xmlns="http://www.w3.org/2000/svg"
   xmlns:svg="http://www.w3.org/2000/svg">
  <sodipodi:namedview
     id="namedview19"
     pagecolor="#ffffff"
     bordercolor="#999999"
     borderopacity="1"
     inkscape:showpageshadow="0"
     inkscape:pageopacity="0"
     inkscape:pagecheckerboard="0"
     inkscape:deskcolor="#d1d1d1"
     showgrid="false"
     inkscape:zoom="0.54276993"
     inkscape:cx="823.55336"
     inkscape:cy="466.12752"
     inkscape:window-width="1920"
     inkscape:window-height="1009"
     inkscape:window-x="1912"
     inkscape:window-y="-8"
     inkscape:window-maximized="1"
     inkscape:current-layer="svg17" />
  <defs
     id="defs5">
    <clipPath
       id="252949c4ce">
      <path
         d="M 123 137.074219 L 644 137.074219 L 644 702.574219 L 123 702.574219 Z M 123 137.074219 "
         clip-rule="nonzero"
         id="path2" />
    </clipPath>
  </defs>
  <g
     clip-path="url(#252949c4ce)"
     id="g15"
     transform="matrix(1.4293964,0,0,1.4169214,-140.31871,-189.58667)"
     style="fill:#0fc2c0;fill-opacity:1">
    <path
       fill="#231f20"
       d="m 580.35156,363.54687 c 19.78125,6.03907 39.46094,13.42969 59.66016,18.22266 -2.91406,9.47266 -12.39063,15.72266 -28.11328,18.74219 -7.39063,-6.14453 -14.89063,-12.1836 -23.01172,-17.39063 -21.96875,-0.83203 -71.32031,1.97657 -71.32031,1.97657 0,0 54.24609,-19.98829 62.78515,-21.55079 z m -244.0625,74.34375 c -3.53906,3.64454 -6.66406,7.70704 -9.57812,11.76563 -2.91407,4.16406 -5.72657,8.33203 -8.01953,12.91016 3.54296,-3.64454 6.66406,-7.70313 9.58203,-11.76563 2.91406,-4.16406 5.72656,-8.43359 8.01562,-12.91016 z m -10.93359,21.34375 c 2.8125,-2.80859 5.10156,-5.93359 7.39453,-9.26562 2.1875,-3.33203 4.16406,-6.66406 5.72656,-10.30859 -2.8125,2.8125 -5.10156,6.03906 -7.39453,9.26953 -2.08203,3.22656 -4.16406,6.66406 -5.72656,10.30468 z m 306.74219,52.79297 c 2.91406,8.53907 8.33203,16.97266 7.80859,26.34375 -5.10156,-14.78515 -41.33594,15.09766 -41.33594,15.09766 0,0 10.3086,5.62109 15.30469,1.14453 4.0625,-3.43359 10.20703,-4.37109 15.72266,-1.35156 -1.66407,5.51562 -9.16016,17.07422 -13.11719,25.92578 l -5.625,52.89453 c -2.39453,27.90625 -16.96875,50.5 -37.69141,70.49219 -2.28906,-4.58203 -5.10156,-8.7461 -9.26562,-11.8711 -0.83203,1.35547 -1.03907,2.70704 -1.03907,2.70704 C 559.62891,691.85156 541.30469,681.75 541.30469,681.75 v 4.47656 c -5.41407,-2.91406 -15.09766,-7.70312 -19.88672,-11.55859 0.20703,2.08594 0.625,5.3125 0.625,5.3125 -49.14453,-21.66016 -83.71485,-53.9375 -101.83203,-98.08594 -19.26172,-34.15234 -22.07422,-77.88672 -15.61719,-127.13672 l 4.89453,-38.21094 -8.33203,0.41407 8.85156,-4.0586 0.3125,-2.29297 -9.05859,0.51954 9.57812,-4.47657 0.10547,-1.14453 -14.47265,0.73047 15.30468,-7.08203 0.10547,-0.625 -15.09765,0.83203 15.19921,-6.97656 -19.88671,1.04297 15.51562,-7.1836 -22.69922,1.14453 14.67969,-6.76953 c -0.20703,-0.10156 -0.3125,-0.20703 -0.51953,-0.3125 l -21.34375,1.14844 13.74219,-6.35547 c -0.10157,0 -0.10157,-0.10156 -0.20704,-0.10156 -13.74218,-29.46875 -50.60156,-37.79688 -71.94921,-11.35156 -18.53125,23.63672 4.58203,51.33593 15.30859,72.99218 l -52.0625,72.05469 c -0.3125,0.41797 -0.51953,0.9375 -0.83203,1.35156 -3.01953,-5.93359 -5.9336,-11.86718 -9.16406,-17.69921 -4.0586,3.01953 -6.8711,7.49609 -7.28907,12.59765 1.04297,3.01953 2.39453,5.9375 3.75,8.85156 0.3125,1.04297 2.91407,4.0625 0.73047,3.95704 -1.46094,-1.14454 -2.70703,-2.5 -3.85547,-3.95704 0.625,2.70704 1.45703,5.3125 2.60547,7.70704 0.10156,0.83203 -1.14844,1.03906 -1.35547,0.20703 -1.35156,-2.5 -3.01953,-4.78907 -4.05859,-7.39453 -1.25,-3.1211 -1.98047,-6.35157 -2.5,-9.6836 -1.45703,-3.22656 -3.01953,-6.45312 -3.85156,-9.99609 -8.4336,13.01562 -5.9375,25.92969 2.08203,38.32031 0.3125,0.51953 -0.41797,1.25 -0.9375,0.83203 -11.97266,-13.84765 -15.82813,-36.65234 -1.875,-50.60547 0.51953,-3.74609 1.35547,-7.80859 3.53906,-10.93359 -11.66016,-15.61719 -25.61328,-29.25781 -40.39844,-41.96094 0,-0.625 -0.10156,-1.25 -0.10156,-1.875 -0.21094,-2.80859 -0.3125,-5.72656 -0.41797,-8.53515 -0.10547,-4.6875 -1.76953,-9.58204 0.10547,-14.0586 1.45703,-3.95703 3.53906,-7.80859 4.37109,-11.87109 -1.5625,-9.16406 -3.85156,-18.22266 -1.35156,-27.38281 -6.5625,-10.20704 -7.39453,-20.82422 -2.08594,-29.88672 -35.8164,2.1875 -88.1875,-17.69922 -95.26953,-57.0586 -7.28906,-34.46484 17.59766,-75.69922 55.39453,-73.51172 11.66016,-5.30859 24.25782,-11.87109 37.16797,-7.49609 6.97657,-0.625 13.85157,0.51953 20.20313,3.43359 10.41015,-15.19921 32.0664,-7.70312 39.25,6.97657 0.52344,-1.8711 0.9375,-3.7461 1.46094,-5.6211 3.43359,-1.66406 6.87109,-3.4375 10.41015,-4.99609 10.72656,-15.10156 8.7461,-19.67969 29.15625,-21.45313 11.34766,-8.64062 24.57031,-14.57421 37.48047,-20.51171 6.97656,-3.4336 14.89063,-2.28907 22.49219,-1.97657 5.72656,-4.375 11.03515,-9.26953 16.44922,-14.05859 14.57812,-0.625 29.05078,-1.875 43.6289,-2.80859 20.51172,-0.3125 41.12891,0.62109 61.64063,-0.3125 31.23437,15.41015 63.19922,30.29687 91.73047,50.60156 0.41406,0.625 0.9375,1.14844 1.35156,1.76953 25.51172,8.125 38.83984,34.36328 40.39844,59.76953 0.625,1.875 1.35547,3.75 1.875,5.62109 5.83203,-13.32812 3.85156,-29.36328 -7.39063,-39.14843 -0.625,-0.41797 -1.14844,-1.45703 -0.10547,-1.66797 7.60157,3.75 13.95313,10.72656 15.61719,19.16015 3.125,11.76563 0.3125,22.59375 -5.62109,33.42188 0.625,3.75 1.25,7.5 1.76953,11.24609 -15.72266,-11.14062 -32.58985,-20.51172 -50.39453,-27.90625 5.93359,5.73047 11.24609,11.8711 16.24218,18.32813 -1.03906,-0.625 -2.08203,-1.25 -3.12109,-1.875 -12.80859,-7.60156 -26.44922,-14.26563 -41.23437,-16.76172 4.0625,3.22656 8.12109,6.66016 11.97265,10.30469 -15.61719,-3.33203 -31.4414,-6.14063 -47.375,-7.8086 2.5,3.125 5,6.14453 7.28906,9.3711 0.3125,0.41797 0.52344,0.83593 0.83594,1.25 -7.08203,1.04297 -14.16406,0.625 -21.24219,1.5625 5.41407,2.91406 11.14063,5.30859 16.55469,8.12109 -4.89453,2.08203 -9.89062,3.95703 -14.78515,6.14453 4.99609,1.45703 10.10156,2.70703 14.89062,4.78906 -3.33203,2.1875 -6.76953,4.26954 -10.10156,6.45704 4.6875,1.14453 9.57812,1.87109 14.26562,3.01953 -5.20703,3.22656 -10.93359,5.62109 -16.24218,8.64062 4.89062,1.45703 9.99609,2.08203 14.78515,3.53906 -0.52344,0.3125 -1.04297,0.625 -1.5625,0.9375 -4.26953,2.60547 -8.43359,5.3125 -12.59765,8.1211 5.72656,1.35547 11.24218,2.91797 16.86718,4.6875 -5.51953,2.60156 -10.93359,5.20703 -16.34765,8.01953 4.05859,1.66406 8.12109,3.22656 12.18359,4.78906 -29.78125,14.16016 -74.96875,38.52344 -83.30078,73.71875 -0.41406,0.20703 -0.93359,0.41797 -1.35156,0.73047 -2.39453,1.45703 -3.64453,3.64453 -3.64453,3.64453 l 8.53906,-5.41797 c -0.10547,0.10547 -1.35547,2.1875 -3.64453,3.64453 -0.10547,0.10547 -0.20703,0.10547 -0.3125,0.21094 -0.10547,0.41406 -0.10547,0.9375 -0.20703,1.35156 -0.21094,0.10547 -0.3125,0.21094 -0.52344,0.3125 -2.39453,1.45704 -3.64453,3.64454 -3.64453,3.64454 l 8.53906,-5.41407 c -0.10547,0.10547 -1.35156,2.1875 -3.64453,3.64453 -0.3125,0.20704 -0.625,0.41797 -0.9375,0.51954 0,0.41796 -0.10156,0.9375 -0.10156,1.35546 0,0 -0.10547,0 -0.10547,0.10157 -2.39453,1.46093 -3.64453,3.64453 -3.64453,3.64453 l 8.53906,-5.41406 c -0.10547,0.10546 -1.35547,2.1875 -3.64453,3.64453 -0.41797,0.21093 -0.73047,0.41797 -1.14453,0.625 0,0.10547 0,0.21093 0,0.3125 0,0.51953 -0.10547,0.9375 -0.10547,1.45703 -2.70703,1.77344 -4.16407,4.16797 -4.16407,4.16797 l 9.89063,-6.35157 c -0.10547,0.10157 -1.66406,2.4961 -4.26953,4.16407 -0.51953,0.3125 -1.14453,0.625 -1.66406,0.9375 0,0.41406 -0.10547,0.72656 -0.10547,1.14453 -0.10547,0 -0.20703,0.10547 -0.20703,0.20703 -2.8125,1.875 -4.47657,4.375 -4.47657,4.375 l 10.20313,-6.55859 c -0.10547,0.20703 -1.66797,2.60156 -4.47656,4.37109 -0.41797,0.3125 -0.9375,0.51953 -1.35547,0.73047 0,0.41406 0,0.83203 -0.10547,1.25 -0.10156,0.10156 -0.3125,0.20703 -0.41406,0.30859 -2.91797,1.875 -4.58204,4.58203 -4.58204,4.58203 l 10.6211,-6.87109 c -0.10547,0.20703 -1.76953,2.70703 -4.58203,4.58203 -0.41797,0.20703 -0.73047,0.41797 -1.14453,0.625 0,0.41406 0,0.83203 0,1.25 -0.21094,0.10156 -0.3125,0.20703 -0.52344,0.3125 -3.01953,1.97656 -4.78906,4.68359 -4.78906,4.68359 l 11.03906,-7.07812 c -0.10547,0.20703 -1.76953,2.80859 -4.78906,4.68359 -0.3125,0.20703 -0.625,0.41797 -1.04297,0.625 0,0.41797 0,0.9375 0,1.35547 -0.20703,0.10156 -0.3125,0.20703 -0.51953,0.3125 -3.125,1.97656 -4.89454,4.89063 -4.89454,4.89063 l 11.34766,-7.28907 c -0.10156,0.21094 -1.87109,2.91797 -4.89062,4.89454 -0.3125,0.21093 -0.625,0.41796 -0.9375,0.625 0,0.41796 0,0.9375 0,1.35546 -0.10547,0.10157 -0.3125,0.20704 -0.41797,0.3125 -3.22657,2.08204 -5.10157,4.9961 -5.10157,4.9961 l 11.76563,-7.60156 c -0.10547,0.21093 -1.97656,3.01953 -5.10156,5 -0.3125,0.20703 -0.73047,0.41406 -1.04297,0.625 0,0.41406 0,0.9375 0.10547,1.35156 -0.10547,0.10547 -0.20703,0.10547 -0.3125,0.21094 -3.33203,2.18359 -5.3086,5.20312 -5.3086,5.20312 l 12.17969,-7.80859 c -0.10156,0.20703 -1.97656,3.125 -5.20312,5.20703 -0.41797,0.20703 -0.73047,0.41797 -1.14844,0.625 0,0.41797 0.10547,0.9375 0.10547,1.35156 0,0 -0.10547,0 -0.10547,0.10547 -3.4336,2.1875 -5.41406,5.3125 -5.41406,5.3125 l 12.49609,-8.01953 c -0.10547,0.20703 -2.08203,3.22656 -5.41406,5.30859 -0.41797,0.3125 -0.83203,0.52344 -1.25,0.73047 0.10547,0.41797 0.10547,0.83203 0.20703,1.25 -3.53906,2.28906 -5.51563,5.51953 -5.51563,5.51953 l 12.91016,-8.33203 c -0.10547,0.21094 -2.08203,3.33203 -5.625,5.51953 -0.41406,0.3125 -0.93359,0.51953 -1.35156,0.73047 0.10547,0.41406 0.10547,0.83203 0.20703,1.24609 -3.53906,2.39844 -5.51953,5.51954 -5.51953,5.51954 l 13.32812,-8.53907 c -0.10156,0.21094 -2.18359,3.4375 -5.72656,5.73047 -0.51953,0.3086 -0.9375,0.6211 -1.45703,0.83203 0.10547,0.41407 0.20703,0.72657 0.20703,1.14453 -3.53906,2.39454 -5.41406,5.51954 -5.41406,5.51954 l 13.64062,-8.7461 c -0.10156,0.20703 -2.28906,3.4336 -5.93359,5.82813 -0.51953,0.3125 -1.04297,0.625 -1.45703,0.83593 0.10156,0.3125 0.20703,0.72657 0.3125,1.03907 -3.54297,2.5 -5.51953,5.625 -5.51953,5.625 l 14.05468,-9.0586 c -0.10156,0.20703 -2.28906,3.53907 -6.03906,6.03907 -0.51953,0.3125 -1.03906,0.62109 -1.55859,0.93359 0.10156,0.3125 0.20703,0.625 0.3125,0.9375 -3.54297,2.5 -5.51953,5.72656 -5.51953,5.72656 l 14.47265,-9.26562 c -0.10547,0.20703 -2.39453,3.64453 -6.24609,6.14453 -0.52344,0.3125 -1.04297,0.625 -1.5625,0.9375 0.10156,0.3125 0.20703,0.51953 0.3125,0.83203 -3.64453,2.60156 -5.625,5.83203 -5.625,5.83203 l 14.78515,-9.47656 c -0.10156,0.20703 -2.39453,3.75 -6.35156,6.35156 -0.51953,0.3125 -0.9375,0.625 -1.45703,0.83203 0.10547,0.21094 0.21094,0.41797 0.3125,0.625 -3.64453,2.60547 -5.72656,5.9375 -5.72656,5.9375 l 15.20312,-9.78906 c -0.10547,0.20703 -2.5,3.85156 -6.55859,6.45703 -0.41797,0.3125 -0.9375,0.51953 -1.35547,0.83203 0.10547,0.10156 0.10547,0.3125 0.20703,0.41406 -3.74609,2.70704 -5.82812,6.03907 -5.82812,6.03907 l 15.61718,-9.9961 c -0.10546,0.21094 -2.60156,3.95703 -6.76953,6.66407 -0.41406,0.3125 -0.83203,0.52343 -1.25,0.73046 0,0.10547 0.10547,0.20704 0.10547,0.20704 -3.85156,2.8125 -6.03906,6.25 -6.03906,6.25 l 15.92969,-10.3086 c -0.20703,0.20703 -2.60157,4.0586 -6.8711,6.76563 -0.3125,0.21093 -0.72656,0.41797 -1.03906,0.625 0.10156,0.21093 0.3125,0.41797 0.41406,0.625 -3.95703,2.8125 -6.24609,6.35156 -6.24609,6.35156 l 15.92969,-10.30859 c -0.20703,0.21093 -2.60157,4.0625 -6.8711,6.76953 -0.20703,0.10547 -0.41797,0.3125 -0.625,0.41797 0.10547,0.20703 0.3125,0.41406 0.41797,0.625 -4.0625,2.80859 -6.25,6.45312 -6.25,6.45312 l 15.92969,-10.30859 c -0.20703,0.21093 -2.60156,4.0625 -6.87109,6.76953 -0.10157,0.10547 -0.20704,0.10547 -0.3125,0.20703 0.10546,0.21094 0.3125,0.41797 0.41796,0.52344 -4.0625,2.80859 -6.24609,6.45312 -6.24609,6.45312 l 15.92969,-10.30859 c -0.21094,0.21094 -2.60547,4.0625 -6.8711,6.76953 0,0 -0.10546,0 -0.10546,0.10547 0.20703,0.20703 0.3125,0.3125 0.51953,0.51953 -3.95703,2.8125 -6.2461,6.35156 -6.2461,6.35156 l 15.92969,-10.30859 c -0.20703,0.20703 -2.60156,4.05859 -6.87109,6.76953 0.20703,0.20703 0.3125,0.3125 0.51953,0.51953 -3.85156,2.8125 -6.03906,6.24609 -6.03906,6.24609 l 15.92968,-10.30859 c -0.20703,0.21094 -2.60156,3.95703 -6.76562,6.76953 0.20703,0.20703 0.41406,0.3125 0.625,0.51953 -3.75,2.70703 -5.9375,6.14453 -5.9375,6.14453 l 15.93359,-10.30859 c -0.10547,0.20703 -2.60547,3.95703 -6.66406,6.66406 0.20703,0.20703 0.41406,0.3125 0.625,0.51953 -3.64453,2.70704 -5.72656,6.03907 -5.72656,6.03907 l 15.92968,-10.3086 c -0.10546,0.21094 -2.5,3.95703 -6.66406,6.66407 0.20703,0.10546 0.51953,0.3125 0.72656,0.41796 -3.53906,2.70704 -5.51562,5.83204 -5.51562,5.83204 l 15.92969,-10.3086 c -0.10547,0.20703 -2.5,3.95703 -6.66407,6.66406 0.3125,0.10157 0.51954,0.3125 0.83204,0.41407 -3.4336,2.70703 -5.3086,5.72656 -5.3086,5.72656 l 15.92969,-10.30859 c -0.10547,0.21093 -2.5,3.85546 -6.55859,6.5625 0.3125,0.10156 0.625,0.3125 0.83203,0.41406 -3.33203,2.60547 -5.20703,5.625 -5.20703,5.625 l 15.93359,-10.3086 c -0.10547,0.20704 -2.5,3.85157 -6.5625,6.5586 0.3125,0.10547 0.625,0.20703 0.9375,0.41797 -3.22656,2.60156 -4.99609,5.51953 -4.99609,5.51953 l 15.92968,-10.3086 c -0.10547,0.20704 -2.5,3.7461 -6.45703,6.45313 0.3125,0.10547 0.625,0.21094 1.04297,0.3125 -3.22656,2.60547 -4.89453,5.41406 -4.89453,5.41406 l 15.92969,-10.30859 c -0.10157,0.21094 -2.39453,3.64453 -6.2461,6.35156 0.3125,0.10547 0.73047,0.21094 1.04297,0.3125 -3.125,2.60547 -4.89453,5.41406 -4.89453,5.41406 l 15.92969,-10.30468 c -0.10547,0.20703 -2.28906,3.53906 -6.03906,6.24609 0.41796,0.10547 0.73046,0.20703 1.14453,0.3125 -3.22657,2.60156 -4.89453,5.41406 -4.89453,5.41406 l 15.93359,-10.30859 c -0.10547,0.20703 -2.1875,3.33203 -5.72656,6.03906 0.41406,0.10547 0.83203,0.20703 1.24609,0.20703 -3.22656,2.60547 -5.10156,5.51953 -5.10156,5.51953 l 15.93359,-10.30859 c -0.10547,0.21094 -2.08594,3.125 -5.41406,5.72656 0.41406,0.10547 0.83203,0.10547 1.35156,0.21094 -3.4375,2.60156 -5.30859,5.62109 -5.30859,5.62109 l 15.92969,-10.30859 c -0.10547,0.20703 -1.875,2.91406 -4.89454,5.41406 0.20704,0 0.3125,0 0.51954,0.10547 0.10546,0.10547 0.3125,0.3125 0.52343,0.41797 -3.33203,2.60156 -5.20703,5.62109 -5.20703,5.62109 l 15.92969,-10.30859 c -0.10547,0.20703 -2.5,3.85156 -6.45703,6.55859 8.125,1.35547 19.67969,-6.35156 26.03125,-9.47265 17.17969,-11.5586 34.25781,-22.69922 50.70703,-23.84766 7.39453,-0.10156 13.84766,4.0625 16.34766,10.72656 0,-0.10547 0,-0.10547 0,0 z M 482.89062,302.83984 c -1.55859,0.52344 -3.74609,1.35547 -5.30859,1.875 -26.65625,8.95703 -55.07812,11.66407 -83.08984,11.2461 29.78125,2.8125 61.12109,-0.3125 88.39843,-13.1211 z m -76.52734,16.5586 c 24.46875,0.51953 49.35156,-2.70703 72.57422,-10.51953 -23.84375,5.41796 -48.10547,8.64453 -72.57422,10.51953 z m -21.13672,-8.7461 c 10.82813,1.8711 21.86719,2.08203 32.79688,1.35157 8.43359,-0.625 16.97265,-1.97657 25.19922,-4.3711 -19.26172,2.91406 -38.62891,3.64063 -57.9961,3.01953 z m 22.90625,-2.39843 c 24.57422,-0.51954 50.08203,-2.91407 72.15625,-14.36719 -36.65234,14.99219 -77.67578,13.64062 -116.51172,11.45312 14.67969,2.1875 29.57032,3.01953 44.35547,2.91407 z m 76.32031,-22.28125 c 0,0 -1.875,-0.72657 -5.41406,-2.08204 -43.10547,-16.24218 -91.52344,-25.71875 -137.54297,-26.86328 47.58203,3.4336 97.875,13.64063 142.95703,28.94532 z m -192.51953,-63.3086 c 18.94922,-0.625 39.04688,2.5 56.85157,8.7461 -18.53516,-7.8086 -40.50391,-10.92969 -60.60157,-8.64063 -0.10156,0.10547 2.8125,0 3.75,-0.10547 z m 1.45703,-2.70703 c 18.74219,-0.51953 38.73438,2.70703 56.4336,8.95703 C 330.875,221 308.48828,217.77344 288.08203,220.16797 c 0.3125,0 4.05859,-0.21094 5.30859,-0.21094 z m 5.41407,6.875 c 15.51562,1.03906 31.03125,4.78906 44.66797,12.49219 0.41796,0.21094 0.9375,0.52344 1.35546,0.73047 -11.97265,-9.9961 -30.50781,-14.78516 -46.02343,-13.22266 z m 187.52343,54.14453 c 0,0 -1.97656,-0.73047 -5.41406,-2.08203 -43.625,-16.45312 -92.5625,-25.92969 -139.0039,-27.17969 47.89843,3.4375 98.8125,13.7461 144.41796,29.26172 z m 1.76954,-5.10547 c 0,0 -1.97657,-0.72656 -5.51954,-2.08203 -44.04296,-16.66015 -93.5,-26.23828 -140.45703,-27.48828 48.51953,3.54297 99.95703,13.95313 145.97657,29.57031 z m -18.21875,-31.23437 c 5.41406,2.39453 10.82812,4.68359 16.44921,6.87109 -5.83203,-3.75 -12.07812,-6.76953 -18.42968,-9.68359 -6.35157,-2.8125 -12.80469,-5.41406 -19.36719,-7.60156 4.6875,2.70703 9.47656,5.10156 14.37109,7.39453 -0.41797,-0.10547 -0.83593,-0.21094 -1.35547,-0.3125 2.8125,1.97656 5.9336,3.43359 9.26563,4.16406 -0.20703,-0.3125 -0.51953,-0.625 -0.93359,-0.83203 z m -28.73829,-8.22656 c 4.89454,2.70703 9.89063,5.20703 14.99219,7.49609 -0.41797,-0.10547 -0.83203,-0.20703 -1.25,-0.20703 2.08203,1.76953 5.3125,3.22656 8.01953,3.64453 -0.3125,-0.3125 -0.625,-0.51953 -1.04297,-0.73047 5.72657,2.60547 11.5586,5 17.49219,7.18359 -11.97265,-7.18359 -24.88281,-12.91015 -38.21094,-17.38671 z m -8.01953,2.60156 c 5.20703,2.8125 10.51563,5.20703 15.82813,7.60156 -0.41797,-0.10156 -0.73047,-0.20703 -1.14453,-0.20703 2.28906,1.76953 5.72656,3.22656 8.53515,3.74609 -0.3125,-0.20703 -0.625,-0.41406 -0.93359,-0.62109 5.72656,2.49609 11.55469,4.78906 17.49219,6.76562 -12.60157,-6.97656 -25.92969,-12.80468 -39.77735,-17.28515 z m 60.91407,10.62109 c -5.9375,-3.64453 -12.1836,-6.76562 -18.53516,-9.68359 -6.35156,-2.91406 -12.70313,-5.6211 -19.36719,-7.91406 4.47656,2.70703 9.16406,5 13.95313,7.28906 -0.625,-0.20703 -1.14453,-0.3125 -1.76953,-0.51953 3.53906,2.39453 7.60156,4.26953 11.76562,5.41406 -0.41797,-0.3125 -0.9375,-0.625 -1.35547,-0.9375 5,2.1875 10.10156,4.375 15.3086,6.35156 z m -7.91407,-8.32812 c 5.51563,2.49609 10.9336,4.99609 16.66016,7.07812 -12.28906,-7.28906 -25.19922,-13.42969 -38.62891,-18.21875 4.47657,2.60156 9.0586,4.89063 13.74219,7.1836 -0.83203,-0.3125 -1.5625,-0.51954 -2.39453,-0.83204 4.05859,2.70704 8.43359,4.89063 13.11719,6.35157 -0.83203,-0.625 -1.66407,-1.14844 -2.4961,-1.5625 z m 60.70313,8.22656 c -16.5586,-7.1875 -33.52735,-13.32813 -50.91797,-18.22266 16.55469,7.1836 33.52734,13.32813 50.91797,18.22266 z m 11.76562,4.26562 c -9.05859,-8.43359 -20.19922,-14.36718 -31.86328,-18.32421 -6.14062,-1.97657 -12.39062,-3.64454 -18.84375,-4.16407 18.11719,4.47657 35.39844,11.8711 50.70703,22.48828 z m -71.94922,-63.09765 c 1.25,1.04297 2.8125,2.08203 4.16407,3.01953 -4.89453,-4.68359 -9.3711,-9.78906 -13.42969,-15.09766 -1.98047,-2.5 -4.78906,-3.95703 -6.875,-6.24609 -6.34766,-7.28906 -34.35938,-9.37109 -44.04297,-9.68359 10.41406,2.28906 21.86719,3.64453 32.17578,7.39062 2.91406,2.5 6.76563,4.16406 10.20313,5 2.60156,1.03906 4.78906,3.22656 6.97656,5.10156 3.01953,3.53907 6.97656,7.4961 10.82812,10.51563 z m -20.19921,-12.59766 c -1.14454,-2.60547 -4.0625,-4.16797 -6.76954,-3.85547 -8.64062,-3.95703 -18.74218,-5.62109 -27.69531,-6.24609 8.7461,2.8125 18.01172,4.89453 26.44531,8.53906 1.46094,2.28906 4.16797,3.7461 6.875,3.53906 4.16407,2.5 8.01563,5.72657 11.14063,9.47657 -2.39453,-4.78907 -5.83203,-8.53907 -9.99609,-11.45313 z m 38.52343,18.53125 c 1.66797,1.04297 3.33203,1.98047 5,2.91797 -8.43359,-6.03906 -16.34765,-12.60156 -23.42968,-20.19922 -2.8086,-4.26953 -6.45313,-7.91406 -10.72266,-10.72656 -10.51563,-11.14063 -39.98438,-9.47656 -54.55859,-10.51563 14.67968,2.60157 31.54687,1.97657 45.08203,9.57813 6.25,2.60156 9.37109,3.01953 14.26562,8.22656 1.45703,1.45703 3.01953,3.33203 4.26953,4.9961 6.2461,6.14453 12.49219,11.45312 20.09375,15.72265 z m 18.11719,4.26953 c -8.22266,-5.93359 -16.44922,-11.76562 -23.94531,-18.53125 -3.95703,-3.54297 -7.70703,-7.5 -11.14063,-11.55859 -2.1875,-2.29297 -4.58203,-4.47656 -7.1875,-6.35156 -15.61718,-13.95313 -44.875,-9.47657 -64.44922,-10.10157 17.38672,1.98047 37.37891,0 53.6211,8.53907 3.75,1.76953 9.57812,3.22656 12.91015,6.45703 1.14844,0.93359 2.39454,2.18359 3.33204,3.22656 10.10156,11.87109 23.32421,20.61719 36.85937,28.32031 z M 411.88281,151.23437 c 26.33985,0.21094 48.20703,-0.93359 73.61328,11.5586 1.5625,1.04297 2.91407,2.1875 4.26953,3.4375 1.14454,1.5625 3.1211,3.95703 4.26954,5.30859 10.82812,11.97656 25.08984,20.20313 38.73046,28.73828 -0.9375,-0.72656 -1.875,-1.35156 -2.70703,-2.08203 -13.53515,-10.09765 -28.42578,-19.67969 -38.3164,-33.63281 -7.70313,-7.49609 -17.80469,-13.42969 -29.05078,-12.91016 -16.86719,-2.91406 -35.81641,-1.45703 -50.8086,-0.41797 z m 81.83985,9.58204 c 12.80468,16.03515 30.40234,27.28125 47.58203,38.10937 -16.14063,-12.18359 -33.32032,-23.94922 -45.8125,-39.98437 -21.97266,-21.03516 -60.70313,-11.5586 -87.56641,-10.20313 27.38281,-0.625 61.11719,-4.78906 85.79688,12.07813 z m 18.53125,67.36718 20.82421,5.72657 c -7.18359,-4.58204 -20.82421,-5.72657 -20.82421,-5.72657 z m 95.27343,25.61328 c 0,0 -35.19531,-31.75781 -72.05468,-38.42187 l 28.63281,22.17969 c 0,0 -20.09375,-12.07813 -31.96485,-13.95313 l 28.32032,21.03516 -10.92969,-10.9336 c 0,0 26.55078,10.6211 38.41797,20.51172 l 0.73047,0.625 c -0.20703,-0.20703 -0.51953,-0.41797 -0.73047,-0.625 l -30.92188,-26.55078 23.63672,13.64063 -22.07422,-14.89063 c 15.92969,7.4961 32.17188,16.66016 48.9375,27.38281 z m -0.3125,-8.95312 c -2.1875,-3.53906 -4.6875,-6.97656 -7.39453,-10.10156 -11.45312,-13.22266 -28.21484,-24.46875 -45.08594,-29.36328 20.19922,8.85156 38.52735,22.28515 52.48047,39.46484 z M 566.5,214.85547 c 11.14453,5.51953 21.24219,13.01562 30.61328,21.03515 2.60156,2.28907 5.20703,4.6836 7.80859,6.97657 C 594.92578,230.47656 581.80859,219.75 566.5,214.85547 Z m -18.21875,-2.08203 c 12.07812,3.4375 23.63672,8.64062 34.46484,14.99218 8.4336,5 16.13672,10.9336 23.42578,17.59766 -14.26562,-16.76172 -36.1289,-29.05078 -57.89062,-32.58984 z m 78.50781,49.35547 C 619.5,246.40625 608.14844,232.45312 594.61328,221.72656 c 12.07813,12.28906 22.90625,25.71875 32.17578,40.40235 z m 0.51953,-0.10547 C 620.125,244.11328 608.46094,227.87109 593.78125,215.375 c 13.12109,14.05859 24.36328,29.67578 33.52734,46.64844 z m -33.00781,-69.55469 c 10.51563,13.53516 20.41016,27.38672 29.88281,41.64844 C 622,216 609.92187,201.11328 594.30078,192.46875 Z m -0.625,9.47656 c 14.78516,17.80469 26.86328,37.90235 34.67578,59.76563 -5.3125,-22.07422 -18.53515,-43.9375 -34.67578,-59.76563 z m -3.64453,3.33203 c 15.62109,16.55469 28.63672,35.60938 37.79687,56.53907 -4.58203,-14.3711 -12.17968,-27.59375 -21.55078,-39.46485 -4.78906,-6.14062 -10.20703,-11.97265 -16.24609,-17.07422 z M 555.67187,171.125 c 3.95704,4.05859 8.1211,7.91406 12.1836,11.86719 4.05859,3.95703 8.01562,8.01953 12.07812,11.97656 -6.14453,-9.57813 -14.57812,-17.70313 -24.26172,-23.84375 z m -11.55468,-5.41406 c 12.91015,11.24218 24.98828,23.32422 35.8164,36.7539 -8.74609,-14.78515 -21.34375,-27.38281 -35.8164,-36.7539 z m -11.5586,-5.41797 c 17.69922,14.05859 33.52735,30.40625 46.125,49.14844 -10.51562,-20.09766 -26.86328,-37.17188 -46.125,-49.14844 z m -10.93359,-4.9961 c 19.47266,14.26563 36.54687,31.75782 49.875,51.85547 -11.24609,-21.44922 -28.94531,-39.67187 -49.875,-51.85547 z m -9.57813,-4.26953 c 20.51172,14.57813 38.21094,32.58985 52.3711,53.41797 -12.07813,-22.17969 -30.60938,-40.92187 -52.3711,-53.41797 z m -106.93359,-4.47656 c 19.16016,-1.35547 39.14844,-3.95703 58.41406,-2.08203 7.28516,1.66406 13.94922,3.01953 21.03125,5.10156 4.47657,1.14453 8.7461,2.60156 12.4961,5.3086 14.47265,18.32812 34.35937,31.34375 54.24609,43.10937 -18.42969,-13.22266 -37.90234,-26.13672 -51.85156,-44.35547 -2.39453,-3.02344 -5.51953,-5.41797 -9.0586,-6.97656 -27.17578,-9.58203 -57.47656,-3.85547 -85.27734,-0.10547 z m -17.91016,14.36719 c 21.55469,6.76953 42.58594,15.20312 62.3711,26.13672 21.03125,8.85156 40.91797,19.99218 60.80469,31.33984 -15.72266,-10.51562 -32.69141,-19.26172 -48.83204,-29.15234 -23.21875,-12.91407 -48.9375,-20.92969 -74.34375,-28.32422 z m -11.66015,1.46094 c 22.59375,6.14062 44.46094,14.57421 64.86719,25.92578 20.92968,8.43359 40.5039,19.57422 60.39062,30.08984 -19.26172,-11.55469 -39.04687,-22.80078 -58.72266,-33.62891 -21.66015,-8.85156 -43.52343,-17.49609 -66.53515,-22.38671 z m -13.95313,1.76953 c 24.46875,5.62109 48.21094,13.95312 70.28125,25.71875 20.92969,8.12109 40.50391,18.84375 60.39063,29.25781 -14.26172,-8.53906 -28.73438,-16.76563 -43.625,-24.26172 -7.8086,-5.30859 -16.34766,-9.47266 -25.19922,-12.59766 -20.40625,-6.97656 -40.39844,-14.99609 -61.84766,-18.11718 z m -8.32812,2.91406 c 24.46875,4.89453 48.41406,12.80859 70.59375,24.36719 20.92969,8.01562 40.71094,18.53125 60.59765,28.83984 -16.03515,-9.89062 -33.10937,-17.91016 -49.35156,-27.38281 -25.51172,-12.8086 -53.72656,-21.24219 -81.83984,-25.82422 z m -6.2461,3.53906 c 24.15625,4.48047 47.6875,11.97656 69.75782,22.91016 20.92968,7.60156 40.60937,18.11719 60.39062,28.21484 -19.26172,-11.14062 -39.04297,-21.76172 -58.92969,-31.85937 -23.11718,-8.1211 -46.64843,-16.34766 -71.21875,-19.26563 z m -5.3125,3.54297 c 23.53125,3.95703 46.4375,11.14063 67.78516,21.76172 20.61328,7.28906 39.98047,17.38672 59.66016,26.96875 -19.05469,-10.62109 -38.52344,-20.82813 -58.10157,-30.51172 -22.48828,-8.01562 -45.5,-15.72266 -69.34375,-18.21875 z m -5.41406,3.64453 c 23.01172,3.64453 45.29297,10.51563 66.11719,20.71875 19.88672,6.76953 38.73437,16.14063 57.68359,25.19922 C 441.55469,213.71094 422.8125,204.02734 403.86328,194.96875 382,187.36719 359.50781,180.07812 336.28906,177.78906 Z m -12.70312,6.2461 c 11.14062,2.5 22.07422,5.20703 33.11328,8.12109 -0.10547,0 -0.3125,0 -0.41797,0 7.60156,3.53906 15.72266,5.9375 24.05078,6.87109 -0.20703,-0.10156 -0.41406,-0.20703 -0.51953,-0.3125 10.51562,3.125 20.92969,6.35547 31.33984,9.6836 -28.00781,-11.55469 -57.47265,-20.19922 -87.5664,-24.36328 z m -13.11719,3.22656 c 11.66016,2.1875 23.21875,4.6875 34.67187,7.39453 -0.10546,0 -0.21093,0 -0.3125,0 8.64063,3.33203 17.59766,6.24609 26.96485,6.97656 -0.20703,-0.10547 -0.41406,-0.20703 -0.6211,-0.3125 11.03516,3.01953 21.96875,6.2461 32.79688,9.6836 -29.88281,-11.8711 -61.43359,-20.19922 -93.5,-23.74219 z m -6.97656,4.375 c 10.41015,1.66406 20.61328,3.64453 30.92187,5.83203 -0.20703,0 -0.3125,0 -0.51953,0 9.89063,3.64453 19.99219,6.35156 30.50781,7.49609 -0.20703,-0.10547 -0.51953,-0.20703 -0.73047,-0.3125 11.35157,3.01953 22.49219,6.2461 33.73829,9.57813 -30.09375,-11.66016 -61.7461,-20.09375 -93.91797,-22.59375 z m -5.41407,4.58203 c 8.7461,1.35156 17.49219,2.91406 26.13282,4.58203 -0.3125,0 -0.51953,0 -0.83203,0 10.82812,3.43359 21.96875,5.93359 33.32031,7.28906 -0.21094,-0.10547 -0.3125,-0.10547 -0.52344,-0.21093 11.87109,2.91796 23.53125,6.14453 35.29688,9.68359 -29.88282,-11.55859 -61.42969,-18.94922 -93.39454,-21.34375 z m -5.20703,4.68359 c 7.4961,0.83594 14.89063,1.98047 22.28125,3.23047 -0.3125,0 -0.72656,0 -1.03906,0 12.07813,3.1211 24.05078,6.14063 36.44141,7.4961 -0.10547,-0.10547 -0.3125,-0.10547 -0.41797,-0.20704 12.18359,3.01954 24.36719,6.35157 36.33984,9.89063 -29.88281,-11.45313 -61.53515,-19.16016 -93.60547,-20.41016 z m -1.25,16.45313 c 19.67969,-0.73047 40.60938,2.60156 59.03907,9.16406 -19.26563,-8.125 -42.06641,-11.35156 -62.89063,-9.05859 -0.10547,0 2.91406,-0.10547 3.85156,-0.10547 z m -28.52734,68.51172 c -4.375,0.625 -9.68359,1.98047 -13.74609,3.125 63.72265,-17.80469 118.17968,34.98437 174.71484,53 -51.74609,-18.53516 -102.03906,-65.59766 -160.96875,-56.125 z m 94.4375,37.17578 c -29.98828,-14.78906 -64.66016,-27.17969 -98.29297,-20.92969 56.95703,-7.91406 107.76563,31.96484 158.57813,49.25 0.73046,0.20703 2.91406,0.9375 2.8125,0.9375 -2.8125,-0.9375 -6.76954,-2.5 -9.78907,-3.75 0.9375,0.3125 3.125,1.04297 3.53907,1.25 -51.7461,-19.46875 -103.07813,-68.41016 -162.11329,-50.29297 36.44141,-10.41015 73.40235,6.45703 105.26563,23.53516 z M 218.21484,217.875 c 0.10547,0 0.52344,-0.3125 0.73047,-0.41406 10.3086,-6.35157 24.46875,-2.39844 30.08985,8.22265 -4.9961,-11.86718 -20.71875,-15.92968 -30.82032,-7.80859 z m 1.45703,-3.85156 c 11.35157,-5.625 25.92969,-0.73047 31.75782,10.51562 -5.72657,-13.42969 -23.32032,-17.91015 -34.77735,-8.85156 0.9375,-0.51953 1.98047,-1.14453 3.01953,-1.66406 z M 234.25,321.79297 c -6.97656,-31.75781 3.53906,-66.95313 26.65625,-89.65235 -3.53906,3.01954 -7.08203,6.5586 -10.10156,10.3086 C 233,264.10547 226.33594,294.82422 234.25,321.79297 Z m 33.94531,-81.73828 c -1.76953,1.45703 -3.64453,3.33203 -5.3125,5.10156 -18.32422,19.16016 -25.71484,48.52344 -18.11719,74.03125 -6.03906,-28.00781 3.125,-58.93359 23.42969,-79.13281 z m -35.29687,113.80859 c 0.72656,2.91406 2.08203,5.72656 3.53906,8.32813 0.20703,-0.20704 0.41797,-0.41407 0.625,-0.625 0.41406,-1.76954 0.9375,-3.53907 1.35156,-5.3086 0.9375,-3.75 1.98047,-7.60156 2.91797,-11.35156 -3.01953,2.70703 -5.9375,5.625 -8.43359,8.95703 z m 3.64453,-18.95312 c -0.52344,0.10546 -1.04297,0.21093 -1.5625,0.3125 -0.52344,1.14843 -0.9375,2.29296 -1.35547,3.4375 0.9375,-1.25 1.98047,-2.5 2.91797,-3.75 z m 28.00781,-98.8125 c -1.875,1.5625 -3.95703,3.53906 -5.72656,5.41406 -19.57422,20.51172 -27.38672,51.75 -19.36719,78.92578 -6.45703,-29.77734 3.33203,-62.89063 25.09375,-84.33984 z m 0.20703,-9.78907 c -3.64453,-3.74609 -7.80859,-7.18359 -12.39062,-9.68359 3.01953,3.4375 6.03906,6.875 8.12109,10.83203 1.45703,-0.3125 2.8125,-0.73047 4.26953,-1.14844 z m -31.96484,39.87891 c -9.89063,16.45312 -9.9961,38.32031 -0.51953,54.98047 -4.58203,-10.72656 -6.25,-22.90625 -5,-34.57031 0.83593,-6.97657 2.70703,-13.95313 5.51953,-20.41016 z m 22.69922,129.21875 c -8.85157,3.23047 -19.05469,4.79297 -28.53125,4.58203 0,0 0.41797,0 1.14843,0.10547 9.16016,1.25 19.15625,-0.51953 27.38282,-4.6875 z m -28.73828,7.28906 c 0,0 0.41796,0 1.14453,0.10547 9.57812,1.14453 19.99218,-0.73047 28.53125,-4.99609 -9.16407,3.43359 -19.78516,5.20312 -29.67578,4.89062 z m 0.41796,-32.17187 c 0.20704,-0.10547 0.3125,-0.3125 0.51954,-0.41797 -0.20704,-0.20703 -0.3125,-0.41797 -0.51954,-0.625 0,0.3125 0,0.625 0,1.04297 z m 3.4336,-3.125 c -1.03906,-1.5625 -1.97656,-3.125 -3.01953,-4.78907 -0.20703,1.25 -0.3125,2.60157 -0.3125,3.95704 0.625,0.72656 1.14453,1.5625 1.76953,2.28906 0.52344,-0.51953 1.04297,-1.03906 1.5625,-1.45703 z m -2.60156,-103.60547 c -10.20313,17.18359 -10.82813,39.88281 -1.66797,57.6875 0.3125,0.625 0.9375,1.66406 1.14843,2.1875 -8.01953,-18.95313 -7.8125,-41.23438 0.51954,-59.875 z m -1.45704,141.60937 c 0,0 0.41407,0 1.25,0.10547 9.99219,1.14453 20.82422,-0.73047 29.77735,-5.20703 -9.57813,3.64453 -20.71875,5.41406 -31.02735,5.10156 z m 37.48438,-16.97265 c 7.28516,-1.76953 14.16016,-4.9961 20.09375,-9.57813 -15.30469,10.3086 -35.71484,13.22266 -53.30859,7.60156 10.41015,4.0625 22.28125,4.6875 33.21484,1.97657 z m 18.53125,-11.76563 c -0.10547,0.10547 -0.72656,0.52344 -1.03906,0.625 -14.47266,9.3711 -33.42578,11.8711 -49.77344,6.5625 16.55859,6.66406 36.65234,3.7461 50.8125,-7.1875 z M 281,374.48047 c -0.10156,0.10156 -0.72656,0.41406 -0.9375,0.625 -13.84766,8.84765 -31.75391,11.24219 -47.375,6.24609 15.72266,6.2461 34.88281,3.53906 48.3125,-6.87109 z m 141.39844,-27.38672 c -0.10547,0 -2.08203,-0.72656 -2.70703,-1.03906 -53.3125,-19.89063 -107.76563,-71.01563 -168.78125,-51.96094 62.16015,-16.97266 116.09375,35.82031 171.48828,53 z M 247.47266,206.94141 c 7.5,5.10156 14.47265,11.35156 19.78515,18.74218 1.76953,-0.41406 3.53906,-0.9375 5.20703,-1.45703 0.9336,-3.53906 1.8711,-7.18359 2.8086,-10.72265 -5.82813,-9.16407 -18.74219,-13.32813 -27.80078,-6.5625 z m -25.09375,2.70703 c -2.60157,0.83593 -5.20313,2.29297 -7.28516,3.95703 13.11719,-8.84766 31.54687,-4.16406 38.83594,9.89453 -4.9961,-11.87109 -19.47266,-18.22266 -31.55078,-13.85156 z m -4.3711,-1.5586 c 0.41797,-0.21093 0.83203,-0.41797 1.25,-0.625 -7.49609,-0.83593 -15.61719,0.10157 -22.59375,2.70703 6.76563,-1.66796 14.16016,-2.39453 21.34375,-2.08203 z m -20.61719,4.6836 c 5.10157,-1.25 10.41407,-1.97657 15.82813,-2.08203 0.51953,-0.3125 0.9375,-0.51954 1.45703,-0.83204 -5.83203,-0.10546 -11.87109,0.9375 -17.28516,2.91407 z m -1.5625,-5.10157 c 8.53907,-2.1875 18.01563,-2.8125 26.96875,-1.875 0.20704,-0.10546 0.51954,-0.20703 0.73047,-0.3125 -9.05859,-1.76953 -19.16015,-1.03906 -27.69922,2.1875 z m -33.6289,24.46875 c 22.90625,15.41016 54.14453,14.78516 82.15234,8.1211 0.3125,-0.41406 0.51953,-0.83203 0.83203,-1.25 -23.73828,3.23047 -71.63672,10.51953 -85.89843,-12.59766 -0.21094,2.1875 1.35156,4.0625 2.91406,5.72656 z m -8.22656,-6.24609 c 0.83203,4.78906 3.4375,8.53516 7.08203,11.45313 15.72265,14.89062 51.22656,14.36718 80.0664,8.85156 0.21094,-0.41797 0.41797,-0.83594 0.625,-1.25 -25.92578,3.01953 -56.84765,7.07812 -80.6914,-7.70703 -3.33203,-2.91407 -5.83203,-6.76563 -7.08203,-11.34766 z m -7.07813,26.55078 c 0,0.10547 0.3125,0.625 0.51953,0.83203 7.07813,12.70313 22.90625,20.09766 37.27344,17.28516 -14.47266,0.625 -29.15234,-6.45703 -37.79297,-18.11719 z m 5.30859,-1.45703 c 6.14454,10.72266 19.67969,16.86719 31.85938,14.36719 -12.39063,0.3125 -24.98828,-5.72656 -32.48438,-15.61719 0.10547,0.20703 0.41797,0.83203 0.625,1.25 z m -9.78906,4.37109 c 0.10547,0.10547 0.41797,0.73047 0.52344,1.04297 8.22266,14.36719 26.02734,22.69922 42.375,19.57422 -16.44922,0.83203 -33.31641,-7.28906 -42.89844,-20.61719 z m 11.35156,42.06641 c 2.39454,3.01953 6.97657,5.3125 10.82813,5.51953 6.66406,2.70703 13.64062,4.6875 20.51172,6.14453 -15.61719,-5.72656 -31.44531,-11.55859 -44.25,-22.38672 3.74609,4.16407 8.12109,7.70313 12.91015,10.72266 z m 3.1211,5.41406 c 1.98047,2.29297 4.89453,3.85547 7.70703,4.6875 7.28906,1.66407 14.36719,4.89453 21.86719,6.03907 -14.9961,-5.51954 -30.09375,-11.2461 -42.79688,-21.13672 3.85547,4.16406 8.4336,7.60156 13.22266,10.41015 z m -9.26563,-3.64453 c 4.26953,4.16797 9.26563,7.5 14.47266,10.20703 1.5625,1.97657 4.0625,3.1211 6.45703,3.64453 6.45313,1.14454 12.80469,4.0586 19.36719,4.9961 -13.95313,-5.20703 -27.90625,-10.41016 -40.29688,-18.84766 z m 41.64844,23.32422 c -12.28516,-4.68359 -24.57031,-9.26562 -36.02344,-15.61719 3.64063,3.01953 7.70313,5.6211 11.97266,7.8086 1.66406,1.98047 4.16406,3.22656 6.66406,3.75 5.82813,0.625 11.5586,3.33203 17.38672,4.05859 z m 49.25,-70.28125 c 0.20703,-0.41797 0.3125,-0.83594 0.51953,-1.25 -26.33984,2.70703 -60.59765,6.45313 -83.29687,-10.82812 -3.64453,-3.95704 -6.14063,-8.75 -7.07813,-14.57813 0.625,6.14063 3.22656,10.82813 7.07813,14.57813 15.51562,16.76171 52.16406,17.28125 82.77734,12.07812 z m -15.82812,73.71875 c -0.10157,-0.10547 -0.41407,-1.04297 -0.6211,-1.35547 -8.22656,-19.98828 -7.8125,-43.625 1.14453,-63.30469 -11.35156,19.36719 -11.55859,44.98047 -0.52343,64.66016 z m 0.41796,37.69141 c -0.10546,-0.10157 -0.10546,-0.20703 -0.20703,-0.41407 -1.875,-3.95703 -3.64453,-8.12109 -4.26953,-12.49609 -0.20703,-1.25 -0.3125,-2.5 -0.20703,-3.85156 -0.625,5.93359 0.9375,12.18359 4.37109,17.59765 0,-0.3125 0.10547,-0.625 0.3125,-0.83593 z m 1.14454,9.78906 c 0,-0.625 -0.10157,-1.25 -0.10157,-1.76953 -0.10547,0.72656 -0.10547,1.35156 -0.21093,2.08203 0.10546,-0.10547 0.21093,-0.20703 0.3125,-0.3125 z m 0.83593,-14.89063 c -3.75,-6.24609 -3.95703,-14.05468 -1.77343,-21.86328 -0.20704,0 -0.3125,0 -0.51954,0 -0.20703,0.51953 -0.41406,1.03907 -0.625,1.45703 -1.25,3.1211 -1.875,6.45313 -2.08203,9.89063 0.20703,4.26953 1.76953,8.32812 3.33203,12.28516 0.20704,0.41796 0.41797,0.83593 0.625,1.35546 0.20704,-0.41796 0.41797,-0.73046 0.625,-1.14453 0.20704,-0.73047 0.3125,-1.35547 0.41797,-1.98047 z m 0.6211,59.45704 c 22.91015,8.64062 37.17187,-7.08204 37.17187,-7.08204 -17.07422,10.51563 -34.15234,7.8086 -37.17187,7.08204 z m 33.83984,8.32812 c -1.25,1.5625 -1.66406,2.5 -1.66406,2.5 15.61719,-1.14453 17.91015,-13.64062 17.91015,-13.64062 -1.46093,0.625 -2.8125,1.35546 -4.16796,1.97656 3.23046,-3.53906 4.6875,-6.45313 4.6875,-6.45313 -2.29297,1.66407 -4.47657,3.125 -6.5586,4.47657 6.14063,-6.03907 8.7461,-11.8711 8.7461,-11.8711 C 251.53516,424.76953 234.5625,428 234.5625,428 c 4.78906,0.20703 9.16406,-0.21094 13.01562,-1.04297 -6.24609,2.5 -9.68359,2.91797 -9.68359,2.91797 8.95313,0.83203 16.03516,-0.9375 21.65625,-3.54297 z m 30.92578,-9.26562 c -4.375,4.05859 -8.53906,7.60156 -12.39062,10.62109 2.60156,-3.23047 3.75,-5.83203 3.75,-5.83203 -2.1875,1.76953 -4.26953,3.22656 -6.25,4.6875 2.91797,-3.23047 4.16406,-5.83203 4.16406,-5.83203 -20.92578,15.09765 -33.83594,16.86718 -33.83594,16.86718 4.78906,0.41797 8.95313,0 12.69922,-0.9375 -6.24609,3.01954 -9.78516,3.64454 -9.78516,3.64454 4.9961,0.20703 9.26563,-0.51954 13.01563,-1.66407 -8.74609,5.10157 -13.84766,6.45313 -13.84766,6.45313 33.00391,-1.14453 42.48047,-28.00781 42.48047,-28.00781 z m 6.8711,13.32812 c 0.10546,-0.10547 -1.25,1.25 -1.66407,1.66406 -8.33203,8.64453 -18.84765,16.14063 -29.57031,21.44922 11.97266,-4.57812 23.42578,-13.01562 31.23438,-23.11328 z m -2.08204,5.93359 c -8.01562,7.8086 -18.01171,14.78516 -28.00781,19.67969 12.28516,-4.68359 24.05078,-13.42969 32.17188,-23.84375 -0.9375,0.9375 -2.91407,3.01953 -4.16407,4.16406 z m -37.0664,45.60547 c 0.51953,-0.3125 0.9375,-0.62109 1.45703,-0.93359 0.3125,-2.71094 0.83203,-5.3125 1.97656,-7.8125 -1.87109,2.39453 -2.91406,5.51953 -3.43359,8.74609 z m 1.66406,10.20703 c 0,0.10157 -0.10156,0.10157 -0.10156,0.20704 -0.41797,0.41796 -0.73047,0.83203 -1.14844,1.35546 0.41797,1.97657 0.9375,3.95313 1.66797,5.9336 0.83203,-2.60156 -0.10547,-5 -0.41797,-7.4961 z m 6.97656,-7.28906 c -1.14453,0.72656 -2.28906,1.5625 -3.43359,2.5 0,0.6211 0,1.35156 0,1.97656 0.93359,-1.5625 2.08203,-3.125 3.43359,-4.47656 z m 24.98828,-12.80859 c -14.36718,2.29297 -30.19531,6.97656 -39.2539,19.16015 -1.14453,1.76954 -2.1836,3.7461 -2.4961,5.83204 7.28907,-15.41407 26.86329,-20.09766 41.75,-24.99219 z m 9.58204,-38.21485 c 0.10156,-0.10156 -1.35547,1.35547 -1.76954,1.77344 -8.85156,9.16016 -19.99218,17.17969 -31.44531,22.80078 12.80469,-4.89453 24.88281,-13.84765 33.21485,-24.57422 z m 21.76171,-86.73437 c -21.55468,-2.28906 -43.10937,-6.35156 -62.89062,-15.30469 18.22266,10.9336 41.64844,15.51172 62.89062,15.30469 z m 6.66407,-2.8125 c -22.28516,-1.76953 -44.67188,-5.51563 -65.39063,-14.16016 17.07813,9.58203 37.48438,13.64063 56.95313,14.26563 2.70703,0 5.72656,0 8.4375,-0.10547 z m -5.41797,-3.01953 c -18.42578,-2.28906 -36.64844,-5.72656 -54.14063,-11.97266 16.55469,8.53906 35.50391,12.1836 54.14063,11.97266 z m 21.76172,-3.7461 c -30.19532,-0.3125 -61.74219,-3.75 -88.29297,-18.95312 25.50781,17.49609 58.20312,21.24219 88.29297,18.95312 z m 64.66015,22.28125 c -0.3125,-0.10546 -2.5,-0.9375 -3.43359,-1.35156 -45.39844,-17.80859 -94.23047,-55.1875 -146.5,-45.71094 53.51953,-7.1875 102.24609,31.54688 149.93359,47.0625 z m 1.76953,-5.10156 c -0.3125,-0.10547 -2.49609,-0.9375 -3.43359,-1.35547 -46.54297,-18.63672 -95.6875,-55.70312 -149.20703,-46.01953 54.76953,-7.5 103.80859,31.13281 152.64062,47.375 z m 3.23047,15.82813 c 13.94922,-3.95703 27.17578,-12.1836 36.54688,-23.32422 9.89062,-9.6836 22.38281,-16.45313 35.08594,-21.55469 -12.91016,3.95703 -25.30079,10.41406 -35.19141,19.67969 -5.3125,3.33203 -9.89063,7.80859 -13.95313,12.59765 -6.76953,5.3125 -14.16015,9.89454 -22.48828,12.60157 z m 43.41797,-24.05469 c 9.0586,-7.39063 19.46875,-13.01563 30.29688,-17.28516 -10.92969,3.33203 -21.34375,8.53907 -30.40235,15.51563 -5.20703,2.70703 -9.47656,7.08203 -13.01562,11.76562 -8.4336,7.60157 -17.07422,14.89063 -28.00781,18.64063 16.24218,-4.89453 29.77734,-16.5586 41.1289,-28.63672 z m -38.52734,33.11328 c 18.64062,-6.14453 32.07031,-22.07422 46.96094,-34.25781 7.49609,-5.10156 15.72265,-9.26563 24.15625,-12.59766 -8.85157,2.60156 -17.28516,6.5586 -24.98829,11.66016 -5.3125,2.28906 -10.20703,6.35156 -13.43359,11.14062 -10.09766,9.26953 -19.78125,19.16016 -32.69531,24.05469 z m 2.39453,4.47656 c 15.41016,-5 26.44922,-17.91015 38.00781,-28.63281 4.9961,-3.01953 9.78516,-6.45703 14.16016,-10.30859 5.93359,-3.54297 12.17969,-6.45703 18.53125,-9.0586 -6.35156,1.8711 -12.49219,4.47657 -18.32422,7.70313 -6.14453,1.875 -12.07813,5.93359 -15.92969,11.14062 -11.55859,10.51953 -21.76172,23.11719 -36.44531,29.15625 z m 2.39453,4.58203 c 17.70313,-6.25 28.53125,-23.32421 43.31641,-33.94531 8.12109,-4.16406 14.99218,-10.10156 23.32422,-13.53515 1.25,-0.41797 2.60156,-0.9375 3.85156,-1.35547 -1.35547,0.41797 -2.60156,0.83203 -3.85156,1.35547 -9.16407,3.12109 -19.05469,5.82812 -25.61329,13.42968 -14.05859,10.6211 -24.46875,26.65625 -41.02734,34.05078 z m 91.73438,-5.72656 33.21484,-12.18359 c 0,0.10547 -17.18359,2.1875 -33.21484,12.18359 z m 30.29687,-13.95312 c 0,0 -17.17969,2.1875 -33.21484,12.18359 z m 0,0"
       fill-opacity="1"
       fill-rule="nonzero"
       id="path13"
       style="fill:#0fc2c0;fill-opacity:1" />
  </g>
</svg>
