<?xml version="1.0" encoding="UTF-8" standalone="no"?>
<!-- Generator: Adobe Illustrator 16.0.0, SVG Export Plug-In . SVG Version: 6.00 Build 0)  -->

<svg
   version="1.0"
   id="Layer_1"
   x="0px"
   y="0px"
   width="100px"
   height="100px"
   viewBox="0 0 100 100"
   enable-background="new 0 0 100 100"
   xml:space="preserve"
   sodipodi:docname="certificate.svg"
   inkscape:version="1.2 (dc2aedaf03, 2022-05-15)"
   xmlns:inkscape="http://www.inkscape.org/namespaces/inkscape"
   xmlns:sodipodi="http://sodipodi.sourceforge.net/DTD/sodipodi-0.dtd"
   xmlns="http://www.w3.org/2000/svg"
   xmlns:svg="http://www.w3.org/2000/svg"><defs
   id="defs17" /><sodipodi:namedview
   id="namedview15"
   pagecolor="#ffffff"
   bordercolor="#999999"
   borderopacity="1"
   inkscape:showpageshadow="0"
   inkscape:pageopacity="0"
   inkscape:pagecheckerboard="0"
   inkscape:deskcolor="#d1d1d1"
   showgrid="false"
   inkscape:zoom="8.29"
   inkscape:cx="49.939686"
   inkscape:cy="49.939686"
   inkscape:window-width="1920"
   inkscape:window-height="1009"
   inkscape:window-x="1912"
   inkscape:window-y="-8"
   inkscape:window-maximized="1"
   inkscape:current-layer="Layer_1" />
<path
   d="M10,20v60h80V20H10z M83.333,73.333H16.667V26.667h66.667V73.333z"
   id="path2" />
<rect
   x="23.332"
   y="33.333"
   width="30.001"
   height="6.667"
   id="rect4" />
<rect
   x="23.332"
   y="46.667"
   width="10"
   height="6.667"
   id="rect6" />
<rect
   x="39.999"
   y="46.667"
   width="13.334"
   height="6.667"
   id="rect8" />
<rect
   x="23.332"
   y="60"
   width="23.335"
   height="6.667"
   id="rect10" />
<path
   d="M78.333,48.333c0-0.84-1.338-1.491-1.546-2.266c-0.212-0.801,0.615-2.035,0.208-2.734c-0.413-0.713-1.897-0.615-2.474-1.182  c-0.573-0.586-0.469-2.067-1.182-2.48c-0.703-0.404-1.937,0.423-2.734,0.211c-0.781-0.211-1.429-1.549-2.272-1.549  c-0.836,0-1.49,1.338-2.266,1.549c-0.797,0.211-2.031-0.619-2.734-0.211c-0.709,0.41-0.608,1.897-1.185,2.48  c-0.573,0.566-2.063,0.469-2.471,1.178c-0.407,0.7,0.42,1.937,0.205,2.734c-0.205,0.778-1.55,1.429-1.55,2.269  s1.345,1.491,1.55,2.265c0.215,0.801-0.618,2.031-0.208,2.734c0.403,0.71,1.895,0.609,2.471,1.186  c0.162,0.162,0.267,0.396,0.354,0.657v13.157L68.333,65l5.834,3.333V55.179c0.088-0.26,0.191-0.498,0.354-0.657  c0.576-0.576,2.061-0.472,2.474-1.185c0.407-0.7-0.42-1.938-0.208-2.734C76.995,49.824,78.333,49.173,78.333,48.333z M68.333,51.667  c-1.839,0-3.333-1.491-3.333-3.333C65,46.491,66.494,45,68.333,45c1.846,0,3.334,1.491,3.334,3.333  C71.667,50.176,70.179,51.667,68.333,51.667z"
   id="path12" />
<path
   style="fill:#ffffff;stroke-width:0.120627"
   d="M 10.072376,50 V 20.024125 H 50 89.927624 V 50 79.975875 H 50 10.072376 Z m 73.341376,0 V 26.658625 H 50 16.586248 V 50 73.341375 H 50 83.413752 Z"
   id="path393" /><path
   style="fill:#ffffff;stroke-width:0.120627"
   d="m 23.341375,36.670688 v -3.256936 h 14.957781 14.95778 v 3.256936 3.256936 H 38.299156 23.341375 Z"
   id="path395" /><path
   style="fill:#ffffff;stroke-width:0.120627"
   d="m 23.341375,50 v -3.31725 h 4.945718 4.945718 V 50 53.31725 h -4.945718 -4.945718 z"
   id="path397" /><path
   style="fill:#ffffff;stroke-width:0.120627"
   d="m 39.987937,50 v -3.31725 h 6.6345 6.634499 V 50 53.31725 h -6.634499 -6.6345 z"
   id="path399" /><path
   style="fill:#ffffff;stroke-width:0.120627"
   d="m 23.341375,63.329312 v -3.256936 h 11.640531 11.640531 v 3.256936 3.256936 H 34.981906 23.341375 Z"
   id="path401" /><path
   style="fill:#ffffff;stroke-width:0.120627"
   d="m 62.545235,61.699188 c 0,-4.701336 -0.03946,-6.64779 -0.139219,-6.86673 -0.187581,-0.411697 -0.504762,-0.600918 -1.508225,-0.899761 -1.309725,-0.390053 -1.412469,-0.60836 -1.066589,-2.266268 0.220194,-1.055451 0.175751,-1.192171 -0.709829,-2.183655 -0.921223,-1.031389 -0.922456,-1.329358 -0.0096,-2.322313 0.878725,-0.955833 0.945106,-1.151591 0.719857,-2.122846 -0.375468,-1.618988 -0.226498,-1.926979 1.12702,-2.330074 1.16352,-0.346512 1.342765,-0.526375 1.766753,-1.772852 0.461045,-1.355415 0.663685,-1.489315 1.815884,-1.199892 1.367674,0.343549 1.608635,0.292907 2.515128,-0.528593 1.198848,-1.086444 1.386758,-1.081032 2.642864,0.07612 0.799129,0.736175 1.044654,0.782622 2.433892,0.460437 1.176684,-0.272891 1.353398,-0.156656 1.812119,1.191928 0.423989,1.246477 0.603234,1.42634 1.766754,1.772852 1.353518,0.403095 1.502487,0.711086 1.127019,2.330074 -0.22403,0.966001 -0.164914,1.141778 0.716046,2.129088 0.909349,1.019125 0.908666,1.292258 -0.0058,2.316071 -0.88558,0.991484 -0.930023,1.128204 -0.70983,2.183655 0.343535,1.64666 0.244145,1.86818 -1.013866,2.259718 -1.022275,0.318168 -1.389188,0.529342 -1.556054,0.895573 -0.10609,0.232837 -0.144114,2.047462 -0.144114,6.877468 v 6.561178 L 71.293366,66.63923 c -1.557648,-0.891624 -2.888758,-1.621136 -2.958022,-1.621136 -0.06927,0 -1.400375,0.729512 -2.958022,1.621136 l -2.832087,1.621136 z m 7.322569,-10.383199 c 1.957141,-0.944603 2.441841,-3.594194 0.954001,-5.214994 -1.334205,-1.453435 -3.446676,-1.500864 -4.870003,-0.109342 -1.82575,1.784953 -0.982989,4.896183 1.515413,5.594464 0.739224,0.206607 1.617629,0.107764 2.400589,-0.270128 z"
   id="path403" /></svg>
