<svg xmlns="http://www.w3.org/2000/svg" xmlns:xlink="http://www.w3.org/1999/xlink" width="1080" zoomAndPan="magnify" viewBox="0 0 810 809.999993" height="1080" preserveAspectRatio="xMidYMid meet" version="1.0"><defs><clipPath id="46d75545eb"><path d="M 8.101562 463 L 379 463 L 379 704 L 8.101562 704 Z M 8.101562 463 " clip-rule="nonzero"/></clipPath><clipPath id="782ced4580"><path d="M 430 463 L 801.601562 463 L 801.601562 704 L 430 704 Z M 430 463 " clip-rule="nonzero"/></clipPath></defs><path fill="#ffffff" d="M 404.835938 18.40625 C 295.476562 18.40625 206.5 107.414062 206.5 216.820312 C 206.503906 326.222656 295.472656 415.230469 404.832031 415.230469 C 514.210938 415.226562 603.183594 326.226562 603.183594 216.820312 C 603.183594 107.414062 514.210938 18.40625 404.835938 18.40625 Z M 404.835938 432.867188 C 285.761719 432.867188 188.867188 335.949219 188.867188 216.820312 C 188.867188 97.6875 285.757812 0.765625 404.832031 0.765625 C 523.929688 0.765625 620.816406 97.6875 620.816406 216.820312 C 620.820312 335.949219 523.929688 432.871094 404.835938 432.867188 Z M 404.835938 432.867188 " fill-opacity="1" fill-rule="evenodd"/><path fill="#ffffff" d="M 404.835938 18.40625 C 354.800781 18.40625 312.515625 109.269531 312.515625 216.820312 C 312.519531 324.371094 354.800781 415.230469 404.832031 415.230469 C 454.886719 415.226562 497.167969 324.371094 497.167969 216.820312 C 497.167969 109.265625 454.882812 18.40625 404.835938 18.40625 Z M 404.835938 432.867188 C 343.191406 432.867188 294.902344 337.972656 294.902344 216.820312 C 294.90625 95.667969 343.191406 0.765625 404.832031 0.765625 C 466.496094 0.765625 514.800781 95.667969 514.800781 216.820312 C 514.800781 337.96875 466.492188 432.871094 404.835938 432.867188 Z M 404.835938 432.867188 " fill-opacity="1" fill-rule="evenodd"/><path fill="#ffffff" d="M 404.835938 432.867188 C 399.96875 432.867188 396.015625 428.921875 396.015625 424.050781 L 396.019531 9.585938 C 396.019531 4.714844 399.964844 0.765625 404.832031 0.765625 C 409.71875 0.765625 413.648438 4.71875 413.648438 9.589844 L 413.652344 424.050781 C 413.652344 428.921875 409.71875 432.871094 404.835938 432.867188 Z M 404.835938 432.867188 " fill-opacity="1" fill-rule="evenodd"/><path fill="#ffffff" d="M 612.003906 225.636719 L 197.683594 225.636719 C 192.820312 225.636719 188.867188 221.6875 188.867188 216.820312 C 188.871094 211.949219 192.816406 208 197.683594 208 L 612.003906 207.996094 C 616.871094 207.996094 620.816406 211.949219 620.816406 216.820312 C 620.820312 221.6875 616.867188 225.640625 612.003906 225.636719 Z M 612.003906 225.636719 " fill-opacity="1" fill-rule="evenodd"/><path fill="#ffffff" d="M 582.847656 119.574219 L 226.832031 119.574219 C 221.964844 119.574219 218.015625 115.625 218.015625 110.753906 C 218.015625 105.878906 221.964844 101.933594 226.832031 101.933594 L 582.847656 101.933594 C 587.71875 101.933594 591.664062 105.882812 591.664062 110.753906 C 591.667969 115.625 587.714844 119.574219 582.847656 119.574219 Z M 582.847656 119.574219 " fill-opacity="1" fill-rule="evenodd"/><path fill="#ffffff" d="M 582.847656 331.699219 L 226.832031 331.699219 C 221.964844 331.699219 218.015625 327.753906 218.015625 322.882812 C 218.015625 318.007812 221.964844 314.0625 226.832031 314.0625 L 582.847656 314.058594 C 587.71875 314.058594 591.664062 318.011719 591.664062 322.882812 C 591.667969 327.753906 587.714844 331.703125 582.847656 331.699219 Z M 582.847656 331.699219 " fill-opacity="1" fill-rule="evenodd"/><g clip-path="url(#46d75545eb)"><path fill="#ffffff" d="M 30.191406 481.042969 C 27.804688 481.042969 25.78125 483.066406 25.78125 485.457031 L 25.785156 681.933594 C 25.785156 684.324219 27.800781 686.34375 30.191406 686.34375 L 356.804688 686.339844 C 359.1875 686.339844 361.210938 684.324219 361.210938 681.933594 L 361.210938 485.457031 C 361.210938 483.0625 359.1875 481.046875 356.800781 481.046875 Z M 356.804688 703.980469 L 30.191406 703.980469 C 18.03125 703.980469 8.148438 694.09375 8.148438 681.933594 L 8.148438 485.457031 C 8.148438 473.296875 18.03125 463.40625 30.191406 463.40625 L 356.804688 463.402344 C 368.964844 463.402344 378.84375 473.296875 378.84375 485.457031 L 378.84375 681.933594 C 378.84375 694.089844 368.960938 703.984375 356.804688 703.980469 Z M 356.804688 703.980469 " fill-opacity="1" fill-rule="evenodd"/></g><path fill="#ffffff" d="M 63.21875 648.886719 L 323.777344 648.886719 L 323.777344 518.5 L 63.21875 518.5 Z M 332.574219 666.527344 L 54.398438 666.527344 C 49.53125 666.527344 45.582031 662.578125 45.582031 657.707031 L 45.582031 509.683594 C 45.582031 504.808594 49.53125 500.863281 54.398438 500.863281 L 332.574219 500.859375 C 337.464844 500.859375 341.390625 504.8125 341.390625 509.683594 L 341.394531 657.707031 C 341.394531 662.578125 337.460938 666.527344 332.574219 666.527344 Z M 332.574219 666.527344 " fill-opacity="1" fill-rule="evenodd"/><path fill="#ffffff" d="M 111.46875 762.34375 C 111.175781 762.34375 110.914062 762.613281 110.914062 762.890625 L 110.917969 790.503906 C 110.917969 790.785156 111.171875 791.050781 111.464844 791.050781 L 275.527344 791.046875 C 275.804688 791.046875 276.078125 790.785156 276.078125 790.503906 L 276.078125 762.890625 C 276.078125 762.609375 275.800781 762.347656 275.527344 762.347656 Z M 275.527344 808.6875 L 111.46875 808.6875 C 101.4375 808.6875 93.28125 800.53125 93.28125 790.503906 L 93.285156 762.890625 C 93.285156 752.859375 101.4375 744.707031 111.464844 744.707031 L 275.527344 744.707031 C 285.558594 744.707031 293.710938 752.863281 293.710938 762.890625 L 293.710938 790.503906 C 293.710938 800.53125 285.554688 808.6875 275.527344 808.6875 Z M 275.527344 808.6875 " fill-opacity="1" fill-rule="evenodd"/><path fill="#ffffff" d="M 130.703125 762.34375 C 128.386719 762.34375 126.070312 761.4375 124.324219 759.632812 C 120.964844 756.117188 121.074219 750.535156 124.582031 747.164062 C 138.796875 733.523438 146.585938 716.28125 148.367188 694.441406 C 148.773438 689.585938 153.03125 685.960938 157.882812 686.375 C 162.734375 686.769531 166.347656 691.03125 165.945312 695.886719 C 163.816406 721.835938 154.007812 743.375 136.796875 759.890625 C 135.089844 761.53125 132.882812 762.347656 130.703125 762.34375 Z M 130.703125 762.34375 " fill-opacity="1" fill-rule="evenodd"/><path fill="#ffffff" d="M 256.296875 762.34375 C 254.113281 762.34375 251.90625 761.53125 250.195312 759.890625 C 232.988281 743.375 223.175781 721.84375 221.046875 695.886719 C 220.644531 691.027344 224.261719 686.773438 229.109375 686.375 C 234 685.964844 238.222656 689.589844 238.625 694.441406 C 240.410156 716.28125 248.195312 733.527344 262.390625 747.164062 C 265.917969 750.53125 266.03125 756.117188 262.667969 759.632812 C 260.925781 761.433594 258.609375 762.347656 256.296875 762.34375 Z M 256.296875 762.34375 " fill-opacity="1" fill-rule="evenodd"/><g clip-path="url(#782ced4580)"><path fill="#ffffff" d="M 452.882812 481.042969 C 450.496094 481.042969 448.472656 483.066406 448.472656 485.457031 L 448.476562 681.933594 C 448.476562 684.324219 450.496094 686.34375 452.882812 686.34375 L 779.496094 686.339844 C 781.882812 686.339844 783.902344 684.324219 783.902344 681.933594 L 783.902344 485.457031 C 783.902344 483.0625 781.882812 481.046875 779.496094 481.046875 Z M 779.496094 703.980469 L 452.882812 703.980469 C 440.722656 703.980469 430.84375 694.09375 430.84375 681.933594 L 430.84375 485.457031 C 430.84375 473.296875 440.722656 463.40625 452.882812 463.40625 L 779.496094 463.402344 C 791.65625 463.402344 801.535156 473.296875 801.535156 485.457031 L 801.539062 681.933594 C 801.539062 694.089844 791.652344 703.984375 779.496094 703.980469 Z M 779.496094 703.980469 " fill-opacity="1" fill-rule="evenodd"/></g><path fill="#ffffff" d="M 485.925781 648.886719 L 746.472656 648.886719 L 746.472656 518.5 L 485.925781 518.5 Z M 755.285156 666.527344 L 477.109375 666.527344 C 472.226562 666.527344 468.289062 662.578125 468.289062 657.707031 L 468.292969 509.683594 C 468.292969 504.808594 472.222656 500.863281 477.105469 500.863281 L 755.285156 500.859375 C 760.15625 500.859375 764.101562 504.8125 764.101562 509.683594 L 764.101562 657.707031 C 764.101562 662.578125 760.152344 666.527344 755.285156 666.527344 Z M 755.285156 666.527344 " fill-opacity="1" fill-rule="evenodd"/><path fill="#ffffff" d="M 534.15625 762.34375 C 533.886719 762.34375 533.605469 762.613281 533.605469 762.890625 L 533.609375 790.503906 C 533.609375 790.785156 533.882812 791.050781 534.15625 791.050781 L 698.21875 791.046875 C 698.511719 791.046875 698.765625 790.785156 698.765625 790.503906 L 698.765625 762.890625 C 698.765625 762.609375 698.511719 762.347656 698.214844 762.347656 Z M 698.21875 808.6875 L 534.15625 808.6875 C 524.132812 808.6875 515.972656 800.53125 515.972656 790.503906 L 515.972656 762.890625 C 515.972656 752.859375 524.128906 744.707031 534.15625 744.707031 L 698.21875 744.707031 C 708.25 744.707031 716.398438 752.863281 716.398438 762.890625 L 716.402344 790.503906 C 716.402344 800.53125 708.246094 808.6875 698.21875 808.6875 Z M 698.21875 808.6875 " fill-opacity="1" fill-rule="evenodd"/><path fill="#ffffff" d="M 553.386719 762.34375 C 551.074219 762.34375 548.761719 761.4375 547.035156 759.632812 C 543.65625 756.117188 543.765625 750.535156 547.289062 747.164062 C 561.488281 733.523438 569.277344 716.28125 571.058594 694.441406 C 571.464844 689.585938 575.722656 685.960938 580.574219 686.375 C 585.425781 686.769531 589.039062 691.03125 588.636719 695.886719 C 586.507812 721.839844 576.695312 743.378906 559.488281 759.890625 C 557.78125 761.53125 555.59375 762.347656 553.386719 762.34375 Z M 553.386719 762.34375 " fill-opacity="1" fill-rule="evenodd"/><path fill="#ffffff" d="M 678.992188 762.34375 C 676.804688 762.34375 674.597656 761.53125 672.890625 759.890625 C 655.683594 743.371094 645.871094 721.839844 643.742188 695.886719 C 643.339844 691.027344 646.957031 686.773438 651.804688 686.371094 C 656.65625 685.980469 660.914062 689.589844 661.320312 694.441406 C 663.101562 716.28125 670.890625 733.523438 685.105469 747.164062 C 688.617188 750.53125 688.722656 756.117188 685.363281 759.632812 C 683.636719 761.4375 681.320312 762.347656 678.992188 762.34375 Z M 678.992188 762.34375 " fill-opacity="1" fill-rule="evenodd"/><path fill="#ffffff" d="M 137.074219 481.042969 C 132.207031 481.042969 128.253906 477.097656 128.253906 472.226562 L 128.253906 266.714844 C 128.253906 261.84375 132.203125 257.894531 137.070312 257.894531 L 203.746094 257.894531 C 208.617188 257.894531 212.5625 261.84375 212.5625 266.714844 C 212.5625 271.582031 208.613281 275.535156 203.746094 275.535156 L 145.890625 275.53125 L 145.890625 472.226562 C 145.890625 477.097656 141.9375 481.046875 137.074219 481.042969 Z M 672.613281 481.042969 C 667.75 481.042969 663.796875 477.097656 663.796875 472.226562 L 663.796875 275.53125 L 605.941406 275.53125 C 601.070312 275.53125 597.121094 271.585938 597.121094 266.714844 C 597.125 261.84375 601.070312 257.894531 605.9375 257.894531 L 672.613281 257.894531 C 677.480469 257.894531 681.429688 261.84375 681.429688 266.714844 L 681.433594 472.226562 C 681.433594 477.097656 677.480469 481.046875 672.613281 481.042969 Z M 672.613281 481.042969 " fill-opacity="1" fill-rule="evenodd"/></svg>