<svg xmlns="http://www.w3.org/2000/svg" xmlns:xlink="http://www.w3.org/1999/xlink" width="1080" zoomAndPan="magnify" viewBox="0 0 810 809.999993" height="1080" preserveAspectRatio="xMidYMid meet" version="1.0"><defs><clipPath id="0c15a22353"><path d="M 0 20.25 L 567 20.25 L 567 628 L 0 628 Z M 0 20.25 " clip-rule="nonzero"/></clipPath><clipPath id="71ee66a0bd"><path d="M 243 182 L 810 182 L 810 789.75 L 243 789.75 Z M 243 182 " clip-rule="nonzero"/></clipPath></defs><g clip-path="url(#0c15a22353)"><path fill="#ffffff" d="M 445.5 20.25 L 324 20.25 C 253.125 20.25 202.5 70.875 202.5 141.75 L 202.5 222.75 L 405 222.75 L 405 263.25 L 121.5 263.25 C 48.074219 263.25 0 315.128906 0 384.75 L 0 506.25 C 0 578.378906 48.074219 627.75 121.5 627.75 L 202.5 627.75 L 202.5 465.75 C 202.5 421.199219 238.949219 384.75 283.5 384.75 L 486 384.75 C 530.550781 384.75 567 348.300781 567 303.75 L 567 141.75 C 567 70.875 517.628906 20.25 445.5 20.25 Z M 283.5 182.25 C 261.144531 182.25 243 164.105469 243 141.75 C 243 119.394531 261.144531 101.25 283.5 101.25 C 305.855469 101.25 324 119.394531 324 141.75 C 324 164.105469 305.855469 182.25 283.5 182.25 Z M 283.5 182.25 " fill-opacity="1" fill-rule="nonzero"/></g><g clip-path="url(#71ee66a0bd)"><path fill="#ffffff" d="M 364.5 789.75 L 486 789.75 C 556.875 789.75 607.5 739.125 607.5 668.25 L 607.5 587.25 L 405 587.25 L 405 546.75 L 688.5 546.75 C 761.925781 546.75 810 494.871094 810 425.25 L 810 303.75 C 810 231.621094 761.886719 182.25 688.5 182.25 L 607.5 182.25 L 607.5 344.25 C 607.5 388.800781 571.050781 425.25 526.5 425.25 L 324 425.25 C 279.449219 425.25 243 461.699219 243 506.25 L 243 668.25 C 243 739.125 292.371094 789.75 364.5 789.75 Z M 526.5 627.75 C 548.855469 627.75 567 645.894531 567 668.25 C 567 690.605469 548.855469 708.75 526.5 708.75 C 504.144531 708.75 486 690.605469 486 668.25 C 486 645.894531 504.144531 627.75 526.5 627.75 Z M 526.5 627.75 " fill-opacity="1" fill-rule="nonzero"/></g></svg>