<svg xmlns="http://www.w3.org/2000/svg" xmlns:xlink="http://www.w3.org/1999/xlink" width="1080" zoomAndPan="magnify" viewBox="0 0 810 809.999993" height="1080" preserveAspectRatio="xMidYMid meet" version="1.0"><path fill="#ffffff" d="M 379.351562 0 L 379.351562 219.902344 C 364.5625 213.890625 332.644531 213.15625 316.917969 213.15625 C 198.597656 213.15625 89.070312 268.835938 89.070312 426.316406 C 89.070312 614.746094 237.417969 639.472656 336.730469 639.472656 C 375.941406 639.472656 464.597656 635.601562 507.21875 623.238281 L 507.21875 0 Z M 592.460938 0 L 592.460938 127.894531 L 720.328125 127.894531 L 720.328125 0 Z M 592.460938 213.15625 L 592.460938 584.101562 C 592.460938 648.730469 553.164062 716.003906 464.597656 754.628906 L 586.46875 809.832031 C 710.328125 767.203125 720.328125 626.734375 720.328125 584.101562 L 720.328125 213.15625 Z M 335.480469 321.902344 C 349.121094 321.902344 364.433594 324.402344 379.351562 327.8125 L 379.351562 528.316406 C 364.433594 531.726562 349.121094 534.308594 335.480469 534.308594 C 279.644531 534.308594 225.511719 516.695312 225.511719 426.316406 C 225.511719 335.9375 279.644531 321.902344 335.480469 321.902344 Z M 335.480469 321.902344 " fill-opacity="1" fill-rule="nonzero"/></svg>