<svg xmlns="http://www.w3.org/2000/svg" xmlns:xlink="http://www.w3.org/1999/xlink" width="1080" zoomAndPan="magnify" viewBox="0 0 810 809.999993" height="1080" preserveAspectRatio="xMidYMid meet" version="1.0"><defs><clipPath id="2d862de4dd"><path d="M 41 6 L 770.738281 6 L 770.738281 810 L 41 810 Z M 41 6 " clip-rule="nonzero"/></clipPath></defs><path fill="#ffffff" d="M 170.214844 346.378906 C 168.804688 341.507812 166.214844 337.117188 162.800781 333.527344 C 162.464844 333.195312 162.132812 332.859375 161.796875 332.550781 C 158.230469 329.140625 153.84375 326.546875 148.941406 325.136719 C 148.53125 324.984375 148.066406 324.882812 147.632812 324.777344 C 145.246094 324.1875 142.753906 323.878906 140.214844 323.878906 C 137.648438 323.878906 135.160156 324.1875 132.773438 324.777344 C 132.335938 324.882812 131.898438 325.007812 131.464844 325.136719 C 126.5625 326.546875 122.171875 329.140625 118.605469 332.550781 C 118.273438 332.886719 117.9375 333.195312 117.628906 333.527344 C 114.191406 337.117188 111.597656 341.507812 110.1875 346.40625 C 110.058594 346.816406 109.957031 347.277344 109.828125 347.6875 C 109.265625 350.101562 108.957031 352.5625 108.957031 355.128906 C 108.957031 357.695312 109.265625 360.183594 109.828125 362.570312 C 109.957031 363.007812 110.085938 363.441406 110.1875 363.878906 C 111.597656 368.753906 114.191406 373.140625 117.628906 376.730469 C 117.964844 377.066406 118.273438 377.375 118.632812 377.679688 C 122.171875 381.121094 126.585938 383.710938 131.464844 385.148438 C 131.898438 385.25 132.335938 385.378906 132.773438 385.480469 C 135.160156 386.070312 137.648438 386.378906 140.214844 386.378906 C 142.78125 386.378906 145.269531 386.070312 147.632812 385.480469 C 148.09375 385.378906 148.53125 385.25 148.941406 385.148438 C 153.84375 383.710938 158.230469 381.121094 161.824219 377.679688 C 162.132812 377.375 162.464844 377.039062 162.800781 376.707031 C 166.214844 373.140625 168.804688 368.753906 170.214844 363.878906 C 170.371094 363.441406 170.449219 362.980469 170.574219 362.542969 C 171.167969 360.183594 171.472656 357.695312 171.472656 355.128906 C 171.472656 352.5625 171.167969 350.074219 170.574219 347.6875 C 170.449219 347.253906 170.34375 346.792969 170.214844 346.378906 " fill-opacity="1" fill-rule="nonzero"/><g clip-path="url(#2d862de4dd)"><path fill="#ffffff" d="M 449.058594 111.804688 C 449.058594 114.988281 446.492188 117.554688 443.335938 117.554688 L 434.304688 117.554688 C 433.945312 119.066406 433.535156 120.582031 433.097656 122.042969 L 440.925781 126.558594 C 443.671875 128.148438 444.621094 131.664062 443.003906 134.433594 L 440.359375 139.027344 L 436.023438 146.546875 C 434.429688 149.289062 430.914062 150.238281 428.167969 148.648438 L 420.316406 144.109375 C 419.265625 145.261719 418.160156 146.367188 417.03125 147.390625 L 417.492188 148.210938 L 421.574219 155.269531 C 423.164062 158.011719 422.214844 161.503906 419.46875 163.117188 L 407.328125 170.097656 C 404.582031 171.714844 401.066406 170.765625 399.476562 168.019531 L 394.960938 160.195312 C 393.472656 160.65625 391.984375 161.066406 390.441406 161.398438 L 390.441406 170.457031 C 390.441406 173.613281 387.875 176.179688 384.695312 176.179688 L 370.679688 176.179688 C 367.5 176.179688 364.933594 173.613281 364.933594 170.457031 L 364.933594 161.398438 C 364.136719 161.21875 363.367188 161.015625 362.597656 160.808594 C 361.851562 160.628906 361.132812 160.398438 360.441406 160.195312 L 356.230469 167.480469 L 356.207031 167.53125 L 355.898438 168.042969 C 355.359375 168.996094 354.5625 169.738281 353.640625 170.226562 C 351.945312 171.125 349.839844 171.148438 348.070312 170.121094 L 335.929688 163.117188 C 333.183594 161.527344 332.234375 158.011719 333.828125 155.292969 L 337.007812 149.804688 L 338.371094 147.417969 C 337.242188 146.367188 336.136719 145.289062 335.085938 144.132812 L 327.230469 148.675781 C 324.460938 150.265625 320.96875 149.316406 319.378906 146.597656 L 312.371094 134.433594 C 311.089844 132.253906 311.449219 129.5625 313.039062 127.765625 C 313.425781 127.328125 313.910156 126.917969 314.449219 126.609375 L 322.304688 122.09375 C 321.84375 120.605469 321.429688 119.117188 321.097656 117.578125 L 312.039062 117.578125 C 308.882812 117.578125 306.316406 115.011719 306.316406 111.859375 L 306.316406 97.851562 C 306.316406 94.667969 308.882812 92.078125 312.039062 92.078125 L 321.070312 92.078125 C 321.148438 91.792969 321.226562 91.488281 321.304688 91.203125 C 321.304688 91.179688 321.304688 91.101562 321.328125 91.078125 C 321.636719 89.894531 321.945312 88.742188 322.277344 87.585938 L 314.449219 83.070312 C 311.730469 81.507812 310.753906 77.964844 312.371094 75.222656 L 319.351562 63.085938 C 320.945312 60.339844 324.460938 59.417969 327.179688 60.980469 L 335.058594 65.523438 C 336.109375 64.394531 337.214844 63.265625 338.34375 62.238281 L 333.800781 54.386719 C 332.210938 51.644531 333.160156 48.128906 335.90625 46.539062 L 348.046875 39.507812 C 350.792969 37.941406 354.308594 38.890625 355.871094 41.636719 L 360.414062 49.460938 C 360.59375 49.410156 360.800781 49.332031 360.980469 49.308594 C 362.261719 48.898438 363.597656 48.539062 364.933594 48.230469 L 364.933594 39.199219 C 364.933594 36.042969 367.5 33.476562 370.679688 33.476562 L 384.695312 33.476562 C 387.875 33.476562 390.441406 36.042969 390.441406 39.199219 L 390.441406 48.230469 C 391.957031 48.589844 393.445312 49 394.933594 49.4375 L 399.476562 41.636719 C 401.042969 38.890625 404.558594 37.917969 407.304688 39.507812 L 419.445312 46.539062 C 422.191406 48.101562 423.140625 51.617188 421.546875 54.363281 L 417.003906 62.238281 C 417.542969 62.726562 418.058594 63.214844 418.570312 63.726562 C 419.160156 64.316406 419.726562 64.90625 420.289062 65.496094 L 421.292969 64.90625 L 428.144531 60.957031 C 430.914062 59.367188 434.40625 60.316406 435.996094 63.058594 L 442.414062 74.144531 L 443.003906 75.195312 C 443.105469 75.347656 443.183594 75.527344 443.234375 75.683594 C 444.464844 78.351562 443.492188 81.558594 440.925781 83.046875 L 433.070312 87.5625 C 433.535156 89.050781 433.945312 90.539062 434.277344 92.050781 L 443.335938 92.050781 C 446.492188 92.050781 449.058594 94.644531 449.058594 97.796875 Z M 211.585938 362.109375 C 211.585938 365.289062 209.019531 367.855469 205.839844 367.855469 L 196.804688 367.855469 C 196.472656 369.367188 196.0625 370.882812 195.597656 372.34375 L 203.425781 376.859375 C 206.171875 378.476562 207.121094 381.964844 205.53125 384.738281 L 202.886719 389.328125 L 198.550781 396.847656 C 196.957031 399.589844 193.441406 400.539062 190.695312 398.949219 L 182.84375 394.410156 C 181.792969 395.5625 180.6875 396.667969 179.558594 397.71875 L 184.074219 405.570312 C 185.691406 408.316406 184.742188 411.828125 181.972656 413.421875 L 169.855469 420.425781 C 167.109375 422.015625 163.59375 421.066406 162.003906 418.320312 L 157.460938 410.496094 C 156 410.957031 154.484375 411.367188 152.945312 411.703125 L 152.945312 420.757812 C 152.945312 423.914062 150.378906 426.480469 147.222656 426.480469 L 133.207031 426.480469 C 130.027344 426.480469 127.460938 423.914062 127.460938 420.757812 L 127.460938 411.703125 C 125.945312 411.367188 124.429688 410.957031 122.96875 410.496094 L 118.757812 417.78125 L 118.425781 418.347656 C 116.835938 421.066406 113.34375 422.015625 110.574219 420.425781 L 98.460938 413.445312 C 95.714844 411.828125 94.761719 408.339844 96.355469 405.59375 L 99.535156 400.105469 L 100.898438 397.71875 C 99.769531 396.667969 98.640625 395.589844 97.585938 394.433594 L 94.996094 395.949219 L 89.757812 398.976562 C 86.988281 400.566406 83.496094 399.644531 81.878906 396.898438 L 74.875 384.761719 C 73.617188 382.554688 73.976562 379.863281 75.566406 378.066406 C 75.953125 377.628906 76.4375 377.21875 76.976562 376.910156 L 84.832031 372.394531 C 84.371094 370.90625 83.957031 369.421875 83.625 367.90625 L 74.566406 367.90625 C 71.382812 367.90625 68.816406 365.339844 68.816406 362.160156 L 68.816406 348.152344 C 68.816406 344.96875 71.382812 342.378906 74.566406 342.378906 L 83.597656 342.378906 C 83.675781 342.070312 83.753906 341.710938 83.855469 341.378906 C 84.136719 340.222656 84.445312 339.042969 84.804688 337.886719 L 76.976562 333.375 C 74.230469 331.808594 73.28125 328.265625 74.875 325.523438 L 81.878906 313.386719 C 83.472656 310.640625 86.960938 309.71875 89.707031 311.28125 L 97.585938 315.824219 C 98.640625 314.695312 99.742188 313.59375 100.871094 312.539062 L 96.328125 304.691406 C 94.738281 301.945312 95.660156 298.429688 98.433594 296.863281 L 110.574219 289.835938 C 113.292969 288.242188 116.835938 289.191406 118.398438 291.9375 L 122.941406 299.761719 C 123.121094 299.710938 123.300781 299.660156 123.480469 299.609375 C 124.789062 299.199219 126.125 298.867188 127.460938 298.558594 L 127.460938 295.425781 L 138.519531 283.78125 L 147.222656 283.78125 C 150.378906 283.78125 152.945312 286.34375 152.945312 289.527344 L 152.945312 298.558594 C 154.484375 298.890625 155.972656 299.300781 157.460938 299.738281 L 161.976562 291.9375 C 163.570312 289.191406 167.058594 288.21875 169.832031 289.835938 L 181.972656 296.839844 C 184.71875 298.402344 185.667969 301.917969 184.074219 304.664062 L 179.53125 312.539062 C 180.660156 313.566406 181.765625 314.667969 182.816406 315.796875 L 190.671875 311.257812 C 193.417969 309.667969 196.933594 310.640625 198.523438 313.386719 L 205.53125 325.496094 C 205.632812 325.652344 205.710938 325.832031 205.761719 326.011719 C 206.992188 328.679688 206.019531 331.859375 203.425781 333.375 L 195.597656 337.863281 C 196.0625 339.351562 196.472656 340.839844 196.804688 342.378906 L 205.839844 342.378906 C 209.019531 342.378906 211.585938 344.945312 211.585938 348.101562 Z M 770.277344 471.503906 L 756.03125 406.671875 C 753.027344 392.972656 742.917969 381.890625 729.519531 377.65625 L 668.875 358.386719 C 668.824219 356.875 668.722656 355.335938 668.464844 353.796875 L 661.484375 312.285156 C 661.253906 310.820312 660.867188 309.410156 660.457031 308.050781 L 708.167969 300.046875 L 694.898438 221.023438 C 688.972656 185.773438 660.894531 159.808594 627.324219 154.960938 L 475.082031 88.433594 C 473.054688 76.402344 468.875 65.113281 462.917969 54.976562 C 449.34375 31.8125 426.578125 14.671875 399.65625 8.566406 C 396.191406 7.769531 392.675781 7.179688 389.082031 6.746094 C 332.800781 0.304688 281.855469 43.253906 279.058594 99.824219 C 278.519531 110.984375 279.804688 121.785156 282.679688 131.894531 L 162.15625 258.867188 C 157.539062 257.816406 152.816406 257.097656 147.992188 256.710938 C 92.222656 252.402344 43.230469 296.144531 41.511719 352 C 39.765625 407.957031 84.625 453.855469 140.214844 453.855469 C 145.785156 453.855469 151.25 453.390625 156.5625 452.496094 L 323.511719 605.867188 C 321.378906 613.820312 320.25 622.160156 320.25 630.753906 L 320.25 732.890625 C 304.132812 732.890625 291.070312 745.949219 291.070312 762.0625 L 291.070312 780.609375 C 291.070312 796.722656 304.132812 809.808594 320.25 809.808594 L 512.964844 809.808594 C 529.105469 809.808594 542.171875 796.722656 542.171875 780.609375 L 542.171875 762.0625 C 542.171875 745.949219 529.105469 732.890625 512.964844 732.890625 L 512.964844 630.753906 C 512.964844 604.148438 502.183594 580.082031 484.757812 562.660156 C 467.308594 545.214844 443.234375 534.441406 416.621094 534.441406 C 400.683594 534.441406 385.695312 538.289062 372.476562 545.140625 L 223.46875 408.238281 C 233.273438 392.894531 238.945312 374.707031 238.945312 355.128906 C 238.945312 336.9375 234.019531 319.902344 225.445312 305.28125 L 332.441406 192.570312 C 345.964844 199.601562 361.363281 203.554688 377.6875 203.554688 C 383.257812 203.554688 388.722656 203.089844 394.035156 202.191406 C 419.136719 197.984375 441.054688 184.363281 455.9375 165.015625 L 542.171875 202.679688 C 536.292969 216.355469 534.136719 231.773438 536.78125 247.527344 L 550.023438 326.574219 L 597.757812 318.570312 C 597.785156 320.007812 597.914062 321.441406 598.144531 322.90625 L 605.125 364.417969 C 605.714844 367.957031 606.894531 371.242188 608.488281 374.269531 L 565.269531 413.675781 C 554.875 423.167969 550.359375 437.433594 553.359375 451.160156 L 567.605469 516.019531 C 569.886719 526.488281 580.28125 533.132812 590.777344 530.824219 C 599.890625 528.820312 606.074219 520.765625 606.074219 511.835938 C 606.074219 510.453125 605.945312 509.066406 605.636719 507.65625 L 591.34375 442.589844 L 646.625 392.175781 L 717.972656 414.78125 L 732.265625 479.84375 C 734.550781 490.363281 744.945312 496.980469 755.441406 494.699219 C 764.527344 492.699219 770.738281 484.667969 770.738281 475.6875 C 770.738281 474.328125 770.582031 472.917969 770.277344 471.503906 " fill-opacity="1" fill-rule="nonzero"/></g><path fill="#ffffff" d="M 407.714844 96.078125 C 406.277344 91.179688 403.6875 86.816406 400.273438 83.226562 C 399.9375 82.890625 399.628906 82.558594 399.269531 82.25 C 395.703125 78.839844 391.316406 76.246094 386.4375 74.808594 C 386.003906 74.683594 385.539062 74.554688 385.128906 74.476562 C 384.71875 74.375 384.308594 74.273438 383.871094 74.195312 C 381.871094 73.785156 379.792969 73.578125 377.6875 73.578125 C 375.121094 73.578125 372.632812 73.886719 370.246094 74.476562 C 369.808594 74.554688 369.371094 74.707031 368.9375 74.808594 C 367.574219 75.222656 366.265625 75.683594 364.984375 76.273438 C 361.671875 77.734375 358.671875 79.789062 356.078125 82.25 C 355.746094 82.585938 355.410156 82.890625 355.101562 83.226562 C 351.691406 86.816406 349.097656 91.203125 347.660156 96.105469 C 347.53125 96.515625 347.429688 96.953125 347.328125 97.386719 C 346.734375 99.773438 346.429688 102.261719 346.429688 104.828125 C 346.429688 107.367188 346.734375 109.855469 347.328125 112.269531 C 347.429688 112.703125 347.558594 113.140625 347.660156 113.578125 C 349.097656 118.453125 351.691406 122.839844 355.101562 126.429688 C 355.4375 126.765625 355.746094 127.070312 356.105469 127.378906 C 359.671875 130.816406 364.058594 133.382812 368.9375 134.820312 C 369.371094 134.949219 369.835938 135.050781 370.246094 135.179688 C 372.65625 135.769531 375.148438 136.078125 377.6875 136.078125 C 380.253906 136.078125 382.742188 135.769531 385.128906 135.179688 C 385.566406 135.050781 386.003906 134.949219 386.4375 134.820312 C 386.515625 134.820312 386.59375 134.769531 386.671875 134.742188 L 387.132812 134.949219 L 387.59375 134.460938 L 387.59375 134.433594 C 392.035156 132.972656 396.011719 130.535156 399.296875 127.378906 C 399.628906 127.070312 399.964844 126.738281 400.273438 126.40625 C 403.6875 122.839844 406.277344 118.453125 407.714844 113.578125 C 407.84375 113.140625 407.945312 112.703125 408.046875 112.242188 C 408.640625 109.855469 408.945312 107.367188 408.945312 104.828125 C 408.945312 102.261719 408.640625 99.773438 408.046875 97.386719 C 407.945312 96.953125 407.816406 96.488281 407.714844 96.078125 " fill-opacity="1" fill-rule="nonzero"/></svg>