<svg xmlns="http://www.w3.org/2000/svg" xmlns:xlink="http://www.w3.org/1999/xlink" width="1080" zoomAndPan="magnify" viewBox="0 0 810 809.999993" height="1080" preserveAspectRatio="xMidYMid meet" version="1.0"><defs><clipPath id="2ff5faee26"><path d="M 7 0 L 802.746094 0 L 802.746094 810 L 7 810 Z M 7 0 " clip-rule="nonzero"/></clipPath></defs><g clip-path="url(#2ff5faee26)"><path fill="#ffffff" d="M 604.621094 594.472656 C 611.386719 568.179688 616.535156 541.222656 619.929688 513.605469 C 620.371094 510.023438 620.78125 506.429688 621.164062 502.824219 L 666.421875 502.824219 C 682.480469 502.824219 695.621094 489.453125 695.621094 473.105469 L 695.621094 428.253906 L 753.234375 428.441406 C 749.328125 489.183594 730.371094 545.804688 700.132812 594.472656 Z M 553.4375 726.59375 C 567.566406 700.042969 579.625 672.484375 589.605469 644.015625 L 663.058594 644.015625 C 632.355469 678.355469 595.144531 706.550781 553.4375 726.59375 Z M 485.792969 750.773438 C 467.058594 755.320312 447.742188 758.316406 427.984375 759.632812 L 427.984375 644.015625 L 537.871094 644.015625 C 523.59375 680.679688 505.398438 715.714844 483.257812 749.027344 Z M 572.507812 502.824219 C 568.875 534.320312 562.863281 564.882812 554.476562 594.472656 L 427.984375 594.472656 L 427.984375 502.824219 Z M 402.4375 391.664062 L 378.078125 470.820312 L 362.882812 470.820312 L 362.464844 472.171875 L 362.132812 470.820312 L 348.328125 470.820312 L 322.089844 375.96875 L 295.851562 470.820312 L 282.046875 470.820312 L 281.714844 472.171875 L 281.296875 470.820312 L 266.101562 470.820312 L 241.742188 391.664062 L 217.386719 470.820312 L 202.191406 470.820312 L 201.773438 472.171875 L 201.441406 470.820312 L 187.636719 470.820312 L 147.496094 325.710938 L 186.074219 325.710938 L 203.992188 399.113281 L 226.730469 325.710938 L 241.640625 325.710938 L 241.742188 325.382812 L 241.847656 325.710938 L 256.753906 325.710938 L 279.492188 399.113281 L 297.414062 325.710938 L 346.765625 325.710938 L 364.6875 399.113281 L 387.425781 325.710938 L 402.335938 325.710938 L 402.4375 325.382812 L 402.539062 325.710938 L 417.449219 325.710938 L 440.1875 399.113281 L 458.105469 325.710938 L 507.460938 325.710938 L 525.378906 399.113281 L 548.117188 325.710938 L 563.023438 325.710938 L 563.128906 325.382812 L 563.234375 325.710938 L 578.140625 325.710938 L 600.878906 399.113281 L 618.800781 325.710938 L 657.378906 325.710938 L 617.238281 470.820312 L 603.429688 470.820312 L 603.101562 472.171875 L 602.683594 470.820312 L 587.488281 470.820312 L 563.128906 391.664062 L 538.769531 470.820312 L 523.578125 470.820312 L 523.15625 472.171875 L 522.828125 470.820312 L 509.023438 470.820312 L 482.78125 375.96875 L 456.546875 470.820312 L 442.738281 470.820312 L 442.40625 472.171875 L 441.988281 470.820312 L 426.792969 470.820312 Z M 379.320312 594.472656 L 246.144531 594.472656 C 237.886719 564.871094 232.082031 534.3125 228.730469 502.824219 L 379.320312 502.824219 Z M 379.320312 759.472656 C 358.082031 757.90625 337.359375 754.402344 317.328125 749.113281 C 295.046875 715.742188 276.792969 680.6875 262.59375 644.015625 L 379.320312 644.015625 Z M 146.679688 644.015625 L 209.078125 644.015625 C 218.050781 669.742188 228.816406 694.71875 241.277344 718.917969 C 205.636719 699.59375 173.648438 674.175781 146.679688 644.015625 Z M 109.609375 594.472656 C 78.980469 545.191406 59.933594 487.75 56.363281 426.140625 L 106.820312 426.308594 L 106.820312 473.105469 C 106.820312 489.453125 119.960938 502.824219 136.019531 502.824219 L 178.238281 502.824219 C 178.839844 508.921875 179.496094 515 180.269531 521.039062 C 183.464844 546.054688 188.136719 570.539062 194.210938 594.472656 Z M 124.640625 193.207031 L 213.035156 193.207031 C 205.015625 219.496094 197.464844 248.296875 191.222656 279.097656 C 190.496094 282.671875 189.808594 286.242188 189.132812 289.808594 L 136.019531 289.808594 C 119.960938 289.808594 106.820312 303.183594 106.820312 319.53125 L 106.820312 376.765625 L 56.839844 376.601562 C 62.171875 308.238281 86.582031 245.261719 124.640625 193.207031 Z M 253.472656 84.722656 C 246.175781 101.101562 237.960938 120.917969 229.644531 143.664062 L 168.46875 143.664062 C 193.671875 120.011719 222.285156 100.070312 253.472656 84.722656 Z M 379.320312 193.207031 L 379.320312 289.808594 L 240.597656 289.808594 C 247.664062 254.710938 256.617188 222.171875 266.011719 193.207031 Z M 321.683594 59.761719 C 340.359375 55.09375 359.613281 51.953125 379.320312 50.496094 L 379.320312 143.664062 L 283.648438 143.664062 C 300.941406 99.175781 316.648438 69.058594 321.683594 59.761719 Z M 427.984375 193.207031 L 539.6875 193.207031 C 547.921875 220.382812 555.703125 250.503906 561.945312 282.789062 C 562.398438 285.132812 562.816406 287.46875 563.25 289.808594 L 427.984375 289.808594 Z M 427.984375 50.335938 C 448.351562 51.699219 468.246094 54.847656 487.519531 59.628906 C 494.789062 74.242188 508.585938 103.675781 523.160156 143.664062 L 427.984375 143.664062 Z M 641.273438 143.664062 L 574.992188 143.664062 C 566.953125 120.234375 558.925781 99.683594 551.699219 82.546875 C 584.660156 98.167969 614.84375 118.867188 641.273438 143.664062 Z M 685.097656 193.207031 C 723.582031 245.84375 748.109375 309.652344 753.070312 378.902344 L 695.621094 378.710938 L 695.621094 319.53125 C 695.621094 303.183594 682.480469 289.808594 666.421875 289.808594 L 612.710938 289.808594 C 611.660156 283.773438 610.570312 277.730469 609.390625 271.667969 C 603.9375 243.734375 597.449219 217.46875 590.53125 193.207031 Z M 404.871094 0 C 185.519531 0 7.066406 181.675781 7.066406 404.984375 C 7.066406 628.296875 185.519531 809.972656 404.871094 809.972656 C 624.21875 809.972656 802.675781 628.296875 802.675781 404.984375 C 802.675781 181.675781 624.21875 0 404.871094 0 " fill-opacity="1" fill-rule="nonzero"/></g></svg>